<?xml version="1.0" encoding="utf-8" standalone="no"?>
<!DOCTYPE svg PUBLIC "-//W3C//DTD SVG 1.1//EN"
  "http://www.w3.org/Graphics/SVG/1.1/DTD/svg11.dtd">
<!-- Created with matplotlib (https://matplotlib.org/) -->
<svg height="345.6pt" version="1.1" viewBox="0 0 460.8 345.6" width="460.8pt" xmlns="http://www.w3.org/2000/svg" xmlns:xlink="http://www.w3.org/1999/xlink">
 <defs>
  <style type="text/css">
*{stroke-linecap:butt;stroke-linejoin:round;}
  </style>
 </defs>
 <g id="figure_1">
  <g id="patch_1">
   <path d="M 0 345.6 
L 460.8 345.6 
L 460.8 0 
L 0 0 
z
" style="fill:#ffffff;"/>
  </g>
  <g id="axes_1">
   <g id="patch_2">
    <path d="M 57.6 307.584 
L 414.72 307.584 
L 414.72 41.472 
L 57.6 41.472 
z
" style="fill:#ffffff;"/>
   </g>
   <g id="matplotlib.axis_1">
    <g id="xtick_1">
     <g id="line2d_1">
      <path clip-path="url(#p33a41c9e09)" d="M 73.832727 307.584 
L 73.832727 41.472 
" style="fill:none;stroke:#cccccc;stroke-linecap:round;"/>
     </g>
     <g id="text_1">
      <!-- 0 -->
      <defs>
       <path d="M 4.15625 35.296875 
Q 4.15625 48 6.765625 55.734375 
Q 9.375 63.484375 14.515625 67.671875 
Q 19.671875 71.875 27.484375 71.875 
Q 33.25 71.875 37.59375 69.546875 
Q 41.9375 67.234375 44.765625 62.859375 
Q 47.609375 58.5 49.21875 52.21875 
Q 50.828125 45.953125 50.828125 35.296875 
Q 50.828125 22.703125 48.234375 14.96875 
Q 45.65625 7.234375 40.5 3 
Q 35.359375 -1.21875 27.484375 -1.21875 
Q 17.140625 -1.21875 11.234375 6.203125 
Q 4.15625 15.140625 4.15625 35.296875 
z
M 13.1875 35.296875 
Q 13.1875 17.671875 17.3125 11.828125 
Q 21.4375 6 27.484375 6 
Q 33.546875 6 37.671875 11.859375 
Q 41.796875 17.71875 41.796875 35.296875 
Q 41.796875 52.984375 37.671875 58.78125 
Q 33.546875 64.59375 27.390625 64.59375 
Q 21.34375 64.59375 17.71875 59.46875 
Q 13.1875 52.9375 13.1875 35.296875 
z
" id="ArialMT-48"/>
      </defs>
      <g style="fill:#262626;" transform="translate(70.774212 324.957594)scale(0.11 -0.11)">
       <use xlink:href="#ArialMT-48"/>
      </g>
     </g>
    </g>
    <g id="xtick_2">
     <g id="line2d_2">
      <path clip-path="url(#p33a41c9e09)" d="M 113.618824 307.584 
L 113.618824 41.472 
" style="fill:none;stroke:#cccccc;stroke-linecap:round;"/>
     </g>
     <g id="text_2">
      <!-- 25 -->
      <defs>
       <path d="M 50.34375 8.453125 
L 50.34375 0 
L 3.03125 0 
Q 2.9375 3.171875 4.046875 6.109375 
Q 5.859375 10.9375 9.828125 15.625 
Q 13.8125 20.3125 21.34375 26.46875 
Q 33.015625 36.03125 37.109375 41.625 
Q 41.21875 47.21875 41.21875 52.203125 
Q 41.21875 57.421875 37.46875 61 
Q 33.734375 64.59375 27.734375 64.59375 
Q 21.390625 64.59375 17.578125 60.78125 
Q 13.765625 56.984375 13.71875 50.25 
L 4.6875 51.171875 
Q 5.609375 61.28125 11.65625 66.578125 
Q 17.71875 71.875 27.9375 71.875 
Q 38.234375 71.875 44.234375 66.15625 
Q 50.25 60.453125 50.25 52 
Q 50.25 47.703125 48.484375 43.546875 
Q 46.734375 39.40625 42.65625 34.8125 
Q 38.578125 30.21875 29.109375 22.21875 
Q 21.1875 15.578125 18.9375 13.203125 
Q 16.703125 10.84375 15.234375 8.453125 
z
" id="ArialMT-50"/>
       <path d="M 4.15625 18.75 
L 13.375 19.53125 
Q 14.40625 12.796875 18.140625 9.390625 
Q 21.875 6 27.15625 6 
Q 33.5 6 37.890625 10.78125 
Q 42.28125 15.578125 42.28125 23.484375 
Q 42.28125 31 38.0625 35.34375 
Q 33.84375 39.703125 27 39.703125 
Q 22.75 39.703125 19.328125 37.765625 
Q 15.921875 35.84375 13.96875 32.765625 
L 5.71875 33.84375 
L 12.640625 70.609375 
L 48.25 70.609375 
L 48.25 62.203125 
L 19.671875 62.203125 
L 15.828125 42.96875 
Q 22.265625 47.46875 29.34375 47.46875 
Q 38.71875 47.46875 45.15625 40.96875 
Q 51.609375 34.46875 51.609375 24.265625 
Q 51.609375 14.546875 45.953125 7.46875 
Q 39.0625 -1.21875 27.15625 -1.21875 
Q 17.390625 -1.21875 11.203125 4.25 
Q 5.03125 9.71875 4.15625 18.75 
z
" id="ArialMT-53"/>
      </defs>
      <g style="fill:#262626;" transform="translate(107.501792 324.957594)scale(0.11 -0.11)">
       <use xlink:href="#ArialMT-50"/>
       <use x="55.615234" xlink:href="#ArialMT-53"/>
      </g>
     </g>
    </g>
    <g id="xtick_3">
     <g id="line2d_3">
      <path clip-path="url(#p33a41c9e09)" d="M 153.40492 307.584 
L 153.40492 41.472 
" style="fill:none;stroke:#cccccc;stroke-linecap:round;"/>
     </g>
     <g id="text_3">
      <!-- 50 -->
      <g style="fill:#262626;" transform="translate(147.287889 324.957594)scale(0.11 -0.11)">
       <use xlink:href="#ArialMT-53"/>
       <use x="55.615234" xlink:href="#ArialMT-48"/>
      </g>
     </g>
    </g>
    <g id="xtick_4">
     <g id="line2d_4">
      <path clip-path="url(#p33a41c9e09)" d="M 193.191016 307.584 
L 193.191016 41.472 
" style="fill:none;stroke:#cccccc;stroke-linecap:round;"/>
     </g>
     <g id="text_4">
      <!-- 75 -->
      <defs>
       <path d="M 4.734375 62.203125 
L 4.734375 70.65625 
L 51.078125 70.65625 
L 51.078125 63.8125 
Q 44.234375 56.546875 37.515625 44.484375 
Q 30.8125 32.421875 27.15625 19.671875 
Q 24.515625 10.6875 23.78125 0 
L 14.75 0 
Q 14.890625 8.453125 18.0625 20.40625 
Q 21.234375 32.375 27.171875 43.484375 
Q 33.109375 54.59375 39.796875 62.203125 
z
" id="ArialMT-55"/>
      </defs>
      <g style="fill:#262626;" transform="translate(187.073985 324.957594)scale(0.11 -0.11)">
       <use xlink:href="#ArialMT-55"/>
       <use x="55.615234" xlink:href="#ArialMT-53"/>
      </g>
     </g>
    </g>
    <g id="xtick_5">
     <g id="line2d_5">
      <path clip-path="url(#p33a41c9e09)" d="M 232.977112 307.584 
L 232.977112 41.472 
" style="fill:none;stroke:#cccccc;stroke-linecap:round;"/>
     </g>
     <g id="text_5">
      <!-- 100 -->
      <defs>
       <path d="M 37.25 0 
L 28.46875 0 
L 28.46875 56 
Q 25.296875 52.984375 20.140625 49.953125 
Q 14.984375 46.921875 10.890625 45.40625 
L 10.890625 53.90625 
Q 18.265625 57.375 23.78125 62.296875 
Q 29.296875 67.234375 31.59375 71.875 
L 37.25 71.875 
z
" id="ArialMT-49"/>
      </defs>
      <g style="fill:#262626;" transform="translate(223.801565 324.957594)scale(0.11 -0.11)">
       <use xlink:href="#ArialMT-49"/>
       <use x="55.615234" xlink:href="#ArialMT-48"/>
       <use x="111.230469" xlink:href="#ArialMT-48"/>
      </g>
     </g>
    </g>
    <g id="xtick_6">
     <g id="line2d_6">
      <path clip-path="url(#p33a41c9e09)" d="M 272.763209 307.584 
L 272.763209 41.472 
" style="fill:none;stroke:#cccccc;stroke-linecap:round;"/>
     </g>
     <g id="text_6">
      <!-- 125 -->
      <g style="fill:#262626;" transform="translate(263.587662 324.957594)scale(0.11 -0.11)">
       <use xlink:href="#ArialMT-49"/>
       <use x="55.615234" xlink:href="#ArialMT-50"/>
       <use x="111.230469" xlink:href="#ArialMT-53"/>
      </g>
     </g>
    </g>
    <g id="xtick_7">
     <g id="line2d_7">
      <path clip-path="url(#p33a41c9e09)" d="M 312.549305 307.584 
L 312.549305 41.472 
" style="fill:none;stroke:#cccccc;stroke-linecap:round;"/>
     </g>
     <g id="text_7">
      <!-- 150 -->
      <g style="fill:#262626;" transform="translate(303.373758 324.957594)scale(0.11 -0.11)">
       <use xlink:href="#ArialMT-49"/>
       <use x="55.615234" xlink:href="#ArialMT-53"/>
       <use x="111.230469" xlink:href="#ArialMT-48"/>
      </g>
     </g>
    </g>
    <g id="xtick_8">
     <g id="line2d_8">
      <path clip-path="url(#p33a41c9e09)" d="M 352.335401 307.584 
L 352.335401 41.472 
" style="fill:none;stroke:#cccccc;stroke-linecap:round;"/>
     </g>
     <g id="text_8">
      <!-- 175 -->
      <g style="fill:#262626;" transform="translate(343.159854 324.957594)scale(0.11 -0.11)">
       <use xlink:href="#ArialMT-49"/>
       <use x="55.615234" xlink:href="#ArialMT-55"/>
       <use x="111.230469" xlink:href="#ArialMT-53"/>
      </g>
     </g>
    </g>
    <g id="xtick_9">
     <g id="line2d_9">
      <path clip-path="url(#p33a41c9e09)" d="M 392.121497 307.584 
L 392.121497 41.472 
" style="fill:none;stroke:#cccccc;stroke-linecap:round;"/>
     </g>
     <g id="text_9">
      <!-- 200 -->
      <g style="fill:#262626;" transform="translate(382.94595 324.957594)scale(0.11 -0.11)">
       <use xlink:href="#ArialMT-50"/>
       <use x="55.615234" xlink:href="#ArialMT-48"/>
       <use x="111.230469" xlink:href="#ArialMT-48"/>
      </g>
     </g>
    </g>
    <g id="text_10">
     <!-- Time -->
     <defs>
      <path d="M 25.921875 0 
L 25.921875 63.140625 
L 2.34375 63.140625 
L 2.34375 71.578125 
L 59.078125 71.578125 
L 59.078125 63.140625 
L 35.40625 63.140625 
L 35.40625 0 
z
" id="ArialMT-84"/>
      <path d="M 6.640625 61.46875 
L 6.640625 71.578125 
L 15.4375 71.578125 
L 15.4375 61.46875 
z
M 6.640625 0 
L 6.640625 51.859375 
L 15.4375 51.859375 
L 15.4375 0 
z
" id="ArialMT-105"/>
      <path d="M 6.59375 0 
L 6.59375 51.859375 
L 14.453125 51.859375 
L 14.453125 44.578125 
Q 16.890625 48.390625 20.9375 50.703125 
Q 25 53.03125 30.171875 53.03125 
Q 35.9375 53.03125 39.625 50.640625 
Q 43.3125 48.25 44.828125 43.953125 
Q 50.984375 53.03125 60.84375 53.03125 
Q 68.5625 53.03125 72.703125 48.75 
Q 76.859375 44.484375 76.859375 35.59375 
L 76.859375 0 
L 68.109375 0 
L 68.109375 32.671875 
Q 68.109375 37.9375 67.25 40.25 
Q 66.40625 42.578125 64.15625 43.984375 
Q 61.921875 45.40625 58.890625 45.40625 
Q 53.421875 45.40625 49.796875 41.765625 
Q 46.1875 38.140625 46.1875 30.125 
L 46.1875 0 
L 37.40625 0 
L 37.40625 33.6875 
Q 37.40625 39.546875 35.25 42.46875 
Q 33.109375 45.40625 28.21875 45.40625 
Q 24.515625 45.40625 21.359375 43.453125 
Q 18.21875 41.5 16.796875 37.734375 
Q 15.375 33.984375 15.375 26.90625 
L 15.375 0 
z
" id="ArialMT-109"/>
      <path d="M 42.09375 16.703125 
L 51.171875 15.578125 
Q 49.03125 7.625 43.21875 3.21875 
Q 37.40625 -1.171875 28.375 -1.171875 
Q 17 -1.171875 10.328125 5.828125 
Q 3.65625 12.84375 3.65625 25.484375 
Q 3.65625 38.578125 10.390625 45.796875 
Q 17.140625 53.03125 27.875 53.03125 
Q 38.28125 53.03125 44.875 45.953125 
Q 51.46875 38.875 51.46875 26.03125 
Q 51.46875 25.25 51.421875 23.6875 
L 12.75 23.6875 
Q 13.234375 15.140625 17.578125 10.59375 
Q 21.921875 6.0625 28.421875 6.0625 
Q 33.25 6.0625 36.671875 8.59375 
Q 40.09375 11.140625 42.09375 16.703125 
z
M 13.234375 30.90625 
L 42.1875 30.90625 
Q 41.609375 37.453125 38.875 40.71875 
Q 34.671875 45.796875 27.984375 45.796875 
Q 21.921875 45.796875 17.796875 41.75 
Q 13.671875 37.703125 13.234375 30.90625 
z
" id="ArialMT-101"/>
     </defs>
     <g style="fill:#262626;" transform="translate(223.052812 339.733219)scale(0.12 -0.12)">
      <use xlink:href="#ArialMT-84"/>
      <use x="57.333984" xlink:href="#ArialMT-105"/>
      <use x="79.550781" xlink:href="#ArialMT-109"/>
      <use x="162.851562" xlink:href="#ArialMT-101"/>
     </g>
    </g>
   </g>
   <g id="matplotlib.axis_2">
    <g id="ytick_1">
     <g id="line2d_10">
      <path clip-path="url(#p33a41c9e09)" d="M 57.6 295.488 
L 414.72 295.488 
" style="fill:none;stroke:#cccccc;stroke-linecap:round;"/>
     </g>
     <g id="text_11">
      <!-- 0 -->
      <g style="fill:#262626;" transform="translate(41.982969 299.424797)scale(0.11 -0.11)">
       <use xlink:href="#ArialMT-48"/>
      </g>
     </g>
    </g>
    <g id="ytick_2">
     <g id="line2d_11">
      <path clip-path="url(#p33a41c9e09)" d="M 57.6 258.269538 
L 414.72 258.269538 
" style="fill:none;stroke:#cccccc;stroke-linecap:round;"/>
     </g>
     <g id="text_12">
      <!-- 100 -->
      <g style="fill:#262626;" transform="translate(29.748906 262.206335)scale(0.11 -0.11)">
       <use xlink:href="#ArialMT-49"/>
       <use x="55.615234" xlink:href="#ArialMT-48"/>
       <use x="111.230469" xlink:href="#ArialMT-48"/>
      </g>
     </g>
    </g>
    <g id="ytick_3">
     <g id="line2d_12">
      <path clip-path="url(#p33a41c9e09)" d="M 57.6 221.051077 
L 414.72 221.051077 
" style="fill:none;stroke:#cccccc;stroke-linecap:round;"/>
     </g>
     <g id="text_13">
      <!-- 200 -->
      <g style="fill:#262626;" transform="translate(29.748906 224.987874)scale(0.11 -0.11)">
       <use xlink:href="#ArialMT-50"/>
       <use x="55.615234" xlink:href="#ArialMT-48"/>
       <use x="111.230469" xlink:href="#ArialMT-48"/>
      </g>
     </g>
    </g>
    <g id="ytick_4">
     <g id="line2d_13">
      <path clip-path="url(#p33a41c9e09)" d="M 57.6 183.832615 
L 414.72 183.832615 
" style="fill:none;stroke:#cccccc;stroke-linecap:round;"/>
     </g>
     <g id="text_14">
      <!-- 300 -->
      <defs>
       <path d="M 4.203125 18.890625 
L 12.984375 20.0625 
Q 14.5 12.59375 18.140625 9.296875 
Q 21.78125 6 27 6 
Q 33.203125 6 37.46875 10.296875 
Q 41.75 14.59375 41.75 20.953125 
Q 41.75 27 37.796875 30.921875 
Q 33.84375 34.859375 27.734375 34.859375 
Q 25.25 34.859375 21.53125 33.890625 
L 22.515625 41.609375 
Q 23.390625 41.5 23.921875 41.5 
Q 29.546875 41.5 34.03125 44.421875 
Q 38.53125 47.359375 38.53125 53.46875 
Q 38.53125 58.296875 35.25 61.46875 
Q 31.984375 64.65625 26.8125 64.65625 
Q 21.6875 64.65625 18.265625 61.421875 
Q 14.84375 58.203125 13.875 51.765625 
L 5.078125 53.328125 
Q 6.6875 62.15625 12.390625 67.015625 
Q 18.109375 71.875 26.609375 71.875 
Q 32.46875 71.875 37.390625 69.359375 
Q 42.328125 66.84375 44.9375 62.5 
Q 47.5625 58.15625 47.5625 53.265625 
Q 47.5625 48.640625 45.0625 44.828125 
Q 42.578125 41.015625 37.703125 38.765625 
Q 44.046875 37.3125 47.5625 32.6875 
Q 51.078125 28.078125 51.078125 21.140625 
Q 51.078125 11.765625 44.234375 5.25 
Q 37.40625 -1.265625 26.953125 -1.265625 
Q 17.53125 -1.265625 11.296875 4.34375 
Q 5.078125 9.96875 4.203125 18.890625 
z
" id="ArialMT-51"/>
      </defs>
      <g style="fill:#262626;" transform="translate(29.748906 187.769412)scale(0.11 -0.11)">
       <use xlink:href="#ArialMT-51"/>
       <use x="55.615234" xlink:href="#ArialMT-48"/>
       <use x="111.230469" xlink:href="#ArialMT-48"/>
      </g>
     </g>
    </g>
    <g id="ytick_5">
     <g id="line2d_14">
      <path clip-path="url(#p33a41c9e09)" d="M 57.6 146.614154 
L 414.72 146.614154 
" style="fill:none;stroke:#cccccc;stroke-linecap:round;"/>
     </g>
     <g id="text_15">
      <!-- 400 -->
      <defs>
       <path d="M 32.328125 0 
L 32.328125 17.140625 
L 1.265625 17.140625 
L 1.265625 25.203125 
L 33.9375 71.578125 
L 41.109375 71.578125 
L 41.109375 25.203125 
L 50.78125 25.203125 
L 50.78125 17.140625 
L 41.109375 17.140625 
L 41.109375 0 
z
M 32.328125 25.203125 
L 32.328125 57.46875 
L 9.90625 25.203125 
z
" id="ArialMT-52"/>
      </defs>
      <g style="fill:#262626;" transform="translate(29.748906 150.550951)scale(0.11 -0.11)">
       <use xlink:href="#ArialMT-52"/>
       <use x="55.615234" xlink:href="#ArialMT-48"/>
       <use x="111.230469" xlink:href="#ArialMT-48"/>
      </g>
     </g>
    </g>
    <g id="ytick_6">
     <g id="line2d_15">
      <path clip-path="url(#p33a41c9e09)" d="M 57.6 109.395692 
L 414.72 109.395692 
" style="fill:none;stroke:#cccccc;stroke-linecap:round;"/>
     </g>
     <g id="text_16">
      <!-- 500 -->
      <g style="fill:#262626;" transform="translate(29.748906 113.332489)scale(0.11 -0.11)">
       <use xlink:href="#ArialMT-53"/>
       <use x="55.615234" xlink:href="#ArialMT-48"/>
       <use x="111.230469" xlink:href="#ArialMT-48"/>
      </g>
     </g>
    </g>
    <g id="ytick_7">
     <g id="line2d_16">
      <path clip-path="url(#p33a41c9e09)" d="M 57.6 72.177231 
L 414.72 72.177231 
" style="fill:none;stroke:#cccccc;stroke-linecap:round;"/>
     </g>
     <g id="text_17">
      <!-- 600 -->
      <defs>
       <path d="M 49.75 54.046875 
L 41.015625 53.375 
Q 39.84375 58.546875 37.703125 60.890625 
Q 34.125 64.65625 28.90625 64.65625 
Q 24.703125 64.65625 21.53125 62.3125 
Q 17.390625 59.28125 14.984375 53.46875 
Q 12.59375 47.65625 12.5 36.921875 
Q 15.671875 41.75 20.265625 44.09375 
Q 24.859375 46.4375 29.890625 46.4375 
Q 38.671875 46.4375 44.84375 39.96875 
Q 51.03125 33.5 51.03125 23.25 
Q 51.03125 16.5 48.125 10.71875 
Q 45.21875 4.9375 40.140625 1.859375 
Q 35.0625 -1.21875 28.609375 -1.21875 
Q 17.625 -1.21875 10.6875 6.859375 
Q 3.765625 14.9375 3.765625 33.5 
Q 3.765625 54.25 11.421875 63.671875 
Q 18.109375 71.875 29.4375 71.875 
Q 37.890625 71.875 43.28125 67.140625 
Q 48.6875 62.40625 49.75 54.046875 
z
M 13.875 23.1875 
Q 13.875 18.65625 15.796875 14.5 
Q 17.71875 10.359375 21.1875 8.171875 
Q 24.65625 6 28.46875 6 
Q 34.03125 6 38.03125 10.484375 
Q 42.046875 14.984375 42.046875 22.703125 
Q 42.046875 30.125 38.078125 34.390625 
Q 34.125 38.671875 28.125 38.671875 
Q 22.171875 38.671875 18.015625 34.390625 
Q 13.875 30.125 13.875 23.1875 
z
" id="ArialMT-54"/>
      </defs>
      <g style="fill:#262626;" transform="translate(29.748906 76.114028)scale(0.11 -0.11)">
       <use xlink:href="#ArialMT-54"/>
       <use x="55.615234" xlink:href="#ArialMT-48"/>
       <use x="111.230469" xlink:href="#ArialMT-48"/>
      </g>
     </g>
    </g>
    <g id="text_18">
     <!-- Population Count -->
     <defs>
      <path d="M 7.71875 0 
L 7.71875 71.578125 
L 34.71875 71.578125 
Q 41.84375 71.578125 45.609375 70.90625 
Q 50.875 70.015625 54.4375 67.546875 
Q 58.015625 65.09375 60.1875 60.640625 
Q 62.359375 56.203125 62.359375 50.875 
Q 62.359375 41.75 56.546875 35.421875 
Q 50.734375 29.109375 35.546875 29.109375 
L 17.1875 29.109375 
L 17.1875 0 
z
M 17.1875 37.546875 
L 35.6875 37.546875 
Q 44.875 37.546875 48.734375 40.96875 
Q 52.59375 44.390625 52.59375 50.59375 
Q 52.59375 55.078125 50.3125 58.265625 
Q 48.046875 61.46875 44.34375 62.5 
Q 41.9375 63.140625 35.5 63.140625 
L 17.1875 63.140625 
z
" id="ArialMT-80"/>
      <path d="M 3.328125 25.921875 
Q 3.328125 40.328125 11.328125 47.265625 
Q 18.015625 53.03125 27.640625 53.03125 
Q 38.328125 53.03125 45.109375 46.015625 
Q 51.90625 39.015625 51.90625 26.65625 
Q 51.90625 16.65625 48.90625 10.90625 
Q 45.90625 5.171875 40.15625 2 
Q 34.421875 -1.171875 27.640625 -1.171875 
Q 16.75 -1.171875 10.03125 5.8125 
Q 3.328125 12.796875 3.328125 25.921875 
z
M 12.359375 25.921875 
Q 12.359375 15.96875 16.703125 11.015625 
Q 21.046875 6.0625 27.640625 6.0625 
Q 34.1875 6.0625 38.53125 11.03125 
Q 42.875 16.015625 42.875 26.21875 
Q 42.875 35.84375 38.5 40.796875 
Q 34.125 45.75 27.640625 45.75 
Q 21.046875 45.75 16.703125 40.8125 
Q 12.359375 35.890625 12.359375 25.921875 
z
" id="ArialMT-111"/>
      <path d="M 6.59375 -19.875 
L 6.59375 51.859375 
L 14.59375 51.859375 
L 14.59375 45.125 
Q 17.4375 49.078125 21 51.046875 
Q 24.5625 53.03125 29.640625 53.03125 
Q 36.28125 53.03125 41.359375 49.609375 
Q 46.4375 46.1875 49.015625 39.953125 
Q 51.609375 33.734375 51.609375 26.3125 
Q 51.609375 18.359375 48.75 11.984375 
Q 45.90625 5.609375 40.453125 2.21875 
Q 35.015625 -1.171875 29 -1.171875 
Q 24.609375 -1.171875 21.109375 0.6875 
Q 17.625 2.546875 15.375 5.375 
L 15.375 -19.875 
z
M 14.546875 25.640625 
Q 14.546875 15.625 18.59375 10.84375 
Q 22.65625 6.0625 28.421875 6.0625 
Q 34.28125 6.0625 38.453125 11.015625 
Q 42.625 15.96875 42.625 26.375 
Q 42.625 36.28125 38.546875 41.203125 
Q 34.46875 46.140625 28.8125 46.140625 
Q 23.1875 46.140625 18.859375 40.890625 
Q 14.546875 35.640625 14.546875 25.640625 
z
" id="ArialMT-112"/>
      <path d="M 40.578125 0 
L 40.578125 7.625 
Q 34.515625 -1.171875 24.125 -1.171875 
Q 19.53125 -1.171875 15.546875 0.578125 
Q 11.578125 2.34375 9.640625 5 
Q 7.71875 7.671875 6.9375 11.53125 
Q 6.390625 14.109375 6.390625 19.734375 
L 6.390625 51.859375 
L 15.1875 51.859375 
L 15.1875 23.09375 
Q 15.1875 16.21875 15.71875 13.8125 
Q 16.546875 10.359375 19.234375 8.375 
Q 21.921875 6.390625 25.875 6.390625 
Q 29.828125 6.390625 33.296875 8.421875 
Q 36.765625 10.453125 38.203125 13.9375 
Q 39.65625 17.4375 39.65625 24.078125 
L 39.65625 51.859375 
L 48.4375 51.859375 
L 48.4375 0 
z
" id="ArialMT-117"/>
      <path d="M 6.390625 0 
L 6.390625 71.578125 
L 15.1875 71.578125 
L 15.1875 0 
z
" id="ArialMT-108"/>
      <path d="M 40.4375 6.390625 
Q 35.546875 2.25 31.03125 0.53125 
Q 26.515625 -1.171875 21.34375 -1.171875 
Q 12.796875 -1.171875 8.203125 3 
Q 3.609375 7.171875 3.609375 13.671875 
Q 3.609375 17.484375 5.34375 20.625 
Q 7.078125 23.78125 9.890625 25.6875 
Q 12.703125 27.59375 16.21875 28.5625 
Q 18.796875 29.25 24.03125 29.890625 
Q 34.671875 31.15625 39.703125 32.90625 
Q 39.75 34.71875 39.75 35.203125 
Q 39.75 40.578125 37.25 42.78125 
Q 33.890625 45.75 27.25 45.75 
Q 21.046875 45.75 18.09375 43.578125 
Q 15.140625 41.40625 13.71875 35.890625 
L 5.125 37.0625 
Q 6.296875 42.578125 8.984375 45.96875 
Q 11.671875 49.359375 16.75 51.1875 
Q 21.828125 53.03125 28.515625 53.03125 
Q 35.15625 53.03125 39.296875 51.46875 
Q 43.453125 49.90625 45.40625 47.53125 
Q 47.359375 45.171875 48.140625 41.546875 
Q 48.578125 39.3125 48.578125 33.453125 
L 48.578125 21.734375 
Q 48.578125 9.46875 49.140625 6.21875 
Q 49.703125 2.984375 51.375 0 
L 42.1875 0 
Q 40.828125 2.734375 40.4375 6.390625 
z
M 39.703125 26.03125 
Q 34.90625 24.078125 25.34375 22.703125 
Q 19.921875 21.921875 17.671875 20.9375 
Q 15.4375 19.96875 14.203125 18.09375 
Q 12.984375 16.21875 12.984375 13.921875 
Q 12.984375 10.40625 15.640625 8.0625 
Q 18.3125 5.71875 23.4375 5.71875 
Q 28.515625 5.71875 32.46875 7.9375 
Q 36.421875 10.15625 38.28125 14.015625 
Q 39.703125 17 39.703125 22.796875 
z
" id="ArialMT-97"/>
      <path d="M 25.78125 7.859375 
L 27.046875 0.09375 
Q 23.34375 -0.6875 20.40625 -0.6875 
Q 15.625 -0.6875 12.984375 0.828125 
Q 10.359375 2.34375 9.28125 4.8125 
Q 8.203125 7.28125 8.203125 15.1875 
L 8.203125 45.015625 
L 1.765625 45.015625 
L 1.765625 51.859375 
L 8.203125 51.859375 
L 8.203125 64.703125 
L 16.9375 69.96875 
L 16.9375 51.859375 
L 25.78125 51.859375 
L 25.78125 45.015625 
L 16.9375 45.015625 
L 16.9375 14.703125 
Q 16.9375 10.9375 17.40625 9.859375 
Q 17.875 8.796875 18.921875 8.15625 
Q 19.96875 7.515625 21.921875 7.515625 
Q 23.390625 7.515625 25.78125 7.859375 
z
" id="ArialMT-116"/>
      <path d="M 6.59375 0 
L 6.59375 51.859375 
L 14.5 51.859375 
L 14.5 44.484375 
Q 20.21875 53.03125 31 53.03125 
Q 35.6875 53.03125 39.625 51.34375 
Q 43.5625 49.65625 45.515625 46.921875 
Q 47.46875 44.1875 48.25 40.4375 
Q 48.734375 37.984375 48.734375 31.890625 
L 48.734375 0 
L 39.9375 0 
L 39.9375 31.546875 
Q 39.9375 36.921875 38.90625 39.578125 
Q 37.890625 42.234375 35.28125 43.8125 
Q 32.671875 45.40625 29.15625 45.40625 
Q 23.53125 45.40625 19.453125 41.84375 
Q 15.375 38.28125 15.375 28.328125 
L 15.375 0 
z
" id="ArialMT-110"/>
      <path id="ArialMT-32"/>
      <path d="M 58.796875 25.09375 
L 68.265625 22.703125 
Q 65.28125 11.03125 57.546875 4.90625 
Q 49.8125 -1.21875 38.625 -1.21875 
Q 27.046875 -1.21875 19.796875 3.484375 
Q 12.546875 8.203125 8.765625 17.140625 
Q 4.984375 26.078125 4.984375 36.328125 
Q 4.984375 47.515625 9.25 55.828125 
Q 13.53125 64.15625 21.40625 68.46875 
Q 29.296875 72.796875 38.765625 72.796875 
Q 49.515625 72.796875 56.828125 67.328125 
Q 64.15625 61.859375 67.046875 51.953125 
L 57.71875 49.75 
Q 55.21875 57.5625 50.484375 61.125 
Q 45.75 64.703125 38.578125 64.703125 
Q 30.328125 64.703125 24.78125 60.734375 
Q 19.234375 56.78125 16.984375 50.109375 
Q 14.75 43.453125 14.75 36.375 
Q 14.75 27.25 17.40625 20.4375 
Q 20.0625 13.625 25.671875 10.25 
Q 31.296875 6.890625 37.84375 6.890625 
Q 45.796875 6.890625 51.3125 11.46875 
Q 56.84375 16.0625 58.796875 25.09375 
z
" id="ArialMT-67"/>
     </defs>
     <g style="fill:#262626;" transform="translate(23.363906 220.55925)rotate(-90)scale(0.12 -0.12)">
      <use xlink:href="#ArialMT-80"/>
      <use x="66.699219" xlink:href="#ArialMT-111"/>
      <use x="122.314453" xlink:href="#ArialMT-112"/>
      <use x="177.929688" xlink:href="#ArialMT-117"/>
      <use x="233.544922" xlink:href="#ArialMT-108"/>
      <use x="255.761719" xlink:href="#ArialMT-97"/>
      <use x="311.376953" xlink:href="#ArialMT-116"/>
      <use x="339.160156" xlink:href="#ArialMT-105"/>
      <use x="361.376953" xlink:href="#ArialMT-111"/>
      <use x="416.992188" xlink:href="#ArialMT-110"/>
      <use x="472.607422" xlink:href="#ArialMT-32"/>
      <use x="500.390625" xlink:href="#ArialMT-67"/>
      <use x="572.607422" xlink:href="#ArialMT-111"/>
      <use x="628.222656" xlink:href="#ArialMT-117"/>
      <use x="683.837891" xlink:href="#ArialMT-110"/>
      <use x="739.453125" xlink:href="#ArialMT-116"/>
     </g>
    </g>
   </g>
   <g id="line2d_17">
    <path clip-path="url(#p33a41c9e09)" d="M 73.832727 295.488 
L 129.533262 295.488 
L 131.124706 295.115815 
L 137.490481 295.115815 
L 139.081925 294.743631 
L 140.673369 294.743631 
L 143.856257 293.999262 
L 153.40492 293.999262 
L 154.996364 293.627077 
L 159.770695 293.627077 
L 161.362139 293.254892 
L 162.953583 293.254892 
L 164.545027 292.882708 
L 166.136471 292.882708 
L 169.319358 292.138338 
L 196.373904 292.138338 
L 197.965348 291.766154 
L 202.739679 291.766154 
L 204.331123 291.393969 
L 210.696898 291.393969 
L 212.288342 291.021785 
L 218.654118 291.021785 
L 220.245561 290.6496 
L 223.428449 290.6496 
L 226.611337 289.905231 
L 229.794225 289.905231 
L 231.385668 289.533046 
L 237.751444 289.533046 
L 239.342888 289.160862 
L 244.117219 289.160862 
L 245.708663 288.416492 
L 256.84877 288.416492 
L 258.440214 288.044308 
L 261.623102 288.044308 
L 263.214545 287.672123 
L 269.580321 287.672123 
L 271.171765 287.299938 
L 277.53754 287.299938 
L 279.128984 286.555569 
L 280.720428 286.183385 
L 282.311872 286.183385 
L 283.903316 285.8112 
L 288.677647 285.8112 
L 290.269091 285.439015 
L 295.043422 285.439015 
L 296.634866 285.066831 
L 299.817754 285.066831 
L 301.409198 284.694646 
L 309.366417 284.694646 
L 310.957861 284.322462 
L 312.549305 284.322462 
L 314.140749 283.950277 
L 317.323636 283.950277 
L 318.91508 283.578092 
L 326.872299 283.578092 
L 328.463743 283.205908 
L 398.487273 283.205908 
L 398.487273 283.205908 
" style="fill:none;stroke:#4c72b0;stroke-linecap:round;stroke-width:1.5;"/>
   </g>
   <g id="line2d_18">
    <path clip-path="url(#p33a41c9e09)" d="M 73.832727 295.488 
L 105.661604 295.488 
L 107.253048 295.115815 
L 110.435936 295.115815 
L 112.02738 294.743631 
L 115.210267 294.743631 
L 119.984599 293.627077 
L 123.167487 293.627077 
L 129.533262 292.138338 
L 131.124706 291.021785 
L 132.71615 290.6496 
L 137.490481 287.299938 
L 139.081925 287.299938 
L 140.673369 285.8112 
L 142.264813 283.578092 
L 147.039144 280.228431 
L 148.630588 277.623138 
L 150.222032 276.1344 
L 151.813476 273.529108 
L 153.40492 272.412554 
L 154.996364 269.062892 
L 156.587807 266.829785 
L 159.770695 261.6192 
L 161.362139 259.386092 
L 164.545027 255.664246 
L 166.136471 255.292062 
L 167.727914 253.803323 
L 169.319358 251.9424 
L 170.910802 250.453662 
L 172.502246 250.081477 
L 174.09369 248.964923 
L 175.685134 247.104 
L 177.276578 245.615262 
L 178.868021 244.870892 
L 182.050909 242.637785 
L 183.642353 242.2656 
L 185.233797 240.776862 
L 186.825241 240.404677 
L 188.416684 240.404677 
L 191.599572 239.660308 
L 194.78246 239.660308 
L 196.373904 239.288123 
L 197.965348 238.543754 
L 201.148235 238.543754 
L 202.739679 237.799385 
L 204.331123 237.4272 
L 205.922567 235.938462 
L 209.105455 235.194092 
L 212.288342 235.194092 
L 213.879786 234.449723 
L 215.47123 234.077538 
L 217.062674 232.216615 
L 218.654118 231.100062 
L 220.245561 228.122585 
L 221.837005 226.633846 
L 223.428449 224.772923 
L 225.019893 224.400738 
L 226.611337 221.423262 
L 229.794225 216.212677 
L 231.385668 212.863015 
L 232.977112 211.002092 
L 234.568556 208.024615 
L 236.16 205.791508 
L 237.751444 202.814031 
L 242.525775 196.114708 
L 244.117219 192.020677 
L 245.708663 189.415385 
L 247.300107 185.321354 
L 248.891551 182.343877 
L 250.482995 178.994215 
L 252.074439 176.016738 
L 253.665882 172.294892 
L 255.257326 169.6896 
L 256.84877 165.223385 
L 258.440214 162.618092 
L 260.031658 160.757169 
L 261.623102 158.524062 
L 263.214545 154.802215 
L 264.805989 151.824738 
L 266.397433 151.080369 
L 267.988877 146.986338 
L 269.580321 143.264492 
L 271.171765 142.892308 
L 272.763209 139.914831 
L 274.354652 137.681723 
L 275.946096 134.332062 
L 279.128984 131.354585 
L 280.720428 130.238031 
L 283.903316 129.493662 
L 287.086203 126.516185 
L 288.677647 125.771815 
L 290.269091 123.910892 
L 291.860535 122.422154 
L 293.451979 121.677785 
L 295.043422 120.561231 
L 296.634866 117.955938 
L 298.22631 116.095015 
L 299.817754 114.606277 
L 301.409198 112.000985 
L 303.000642 110.512246 
L 304.592086 109.767877 
L 306.183529 106.7904 
L 307.774973 104.929477 
L 309.366417 103.812923 
L 310.957861 101.207631 
L 312.549305 98.974523 
L 314.140749 98.230154 
L 315.732193 94.136123 
L 317.323636 92.2752 
L 318.91508 89.297723 
L 320.506524 88.181169 
L 322.097968 85.948062 
L 323.689412 85.575877 
L 325.280856 84.459323 
L 326.872299 82.226215 
L 328.463743 80.365292 
L 330.055187 79.993108 
L 331.646631 79.993108 
L 333.238075 79.620923 
L 336.420963 78.132185 
L 338.012406 77.76 
L 342.786738 75.526892 
L 344.378182 75.526892 
L 349.152513 74.410338 
L 350.743957 74.410338 
L 352.335401 74.038154 
L 353.926845 74.038154 
L 355.518289 73.293785 
L 357.109733 73.293785 
L 358.701176 72.9216 
L 366.658396 72.9216 
L 368.24984 72.549415 
L 380.98139 72.549415 
L 384.164278 71.805046 
L 396.895829 71.805046 
L 398.487273 71.432862 
L 398.487273 71.432862 
" style="fill:none;stroke:#dd8452;stroke-linecap:round;stroke-width:1.5;"/>
   </g>
   <g id="line2d_19">
    <path clip-path="url(#p33a41c9e09)" d="M 73.832727 295.115815 
L 78.607059 295.115815 
L 80.198503 294.743631 
L 83.38139 294.743631 
L 88.155722 293.627077 
L 91.33861 293.627077 
L 97.704385 292.138338 
L 99.295829 290.6496 
L 100.887273 290.277415 
L 105.661604 286.927754 
L 107.253048 286.927754 
L 108.844492 285.439015 
L 110.435936 282.833723 
L 115.210267 279.484062 
L 116.801711 277.250954 
L 118.393155 276.1344 
L 119.984599 273.901292 
L 121.576043 272.784738 
L 123.167487 269.062892 
L 124.75893 267.201969 
L 129.533262 260.502646 
L 131.124706 260.130462 
L 132.71615 258.269538 
L 134.307594 259.013908 
L 135.899037 258.269538 
L 139.081925 256.036431 
L 140.673369 257.152985 
L 142.264813 258.641723 
L 145.447701 257.897354 
L 147.039144 258.269538 
L 148.630588 259.758277 
L 150.222032 260.130462 
L 151.813476 262.363569 
L 153.40492 261.991385 
L 154.996364 265.341046 
L 159.770695 272.040369 
L 161.362139 274.645662 
L 164.545027 278.367508 
L 166.136471 277.623138 
L 167.727914 279.484062 
L 169.319358 281.717169 
L 170.910802 282.461538 
L 174.09369 281.717169 
L 175.685134 283.205908 
L 177.276578 284.322462 
L 180.459465 285.8112 
L 182.050909 286.183385 
L 183.642353 286.183385 
L 185.233797 285.8112 
L 186.825241 285.066831 
L 188.416684 281.717169 
L 190.008128 280.600615 
L 191.599572 279.111877 
L 193.191016 278.367508 
L 194.78246 275.017846 
L 196.373904 272.784738 
L 197.965348 271.296 
L 199.556791 267.574154 
L 201.148235 265.713231 
L 202.739679 263.480123 
L 205.922567 260.502646 
L 207.514011 258.269538 
L 209.105455 256.408615 
L 210.696898 254.175508 
L 212.288342 250.453662 
L 213.879786 247.848369 
L 215.47123 244.126523 
L 217.062674 243.009969 
L 218.654118 240.776862 
L 220.245561 241.149046 
L 221.837005 238.915938 
L 223.428449 238.171569 
L 225.019893 234.449723 
L 226.611337 234.821908 
L 228.202781 235.566277 
L 229.794225 235.938462 
L 231.385668 235.566277 
L 232.977112 234.449723 
L 234.568556 236.682831 
L 236.16 234.821908 
L 237.751444 234.077538 
L 239.342888 235.938462 
L 240.934332 235.194092 
L 242.525775 235.194092 
L 244.117219 235.938462 
L 247.300107 239.660308 
L 248.891551 241.149046 
L 250.482995 244.126523 
L 253.665882 248.592738 
L 255.257326 249.709292 
L 256.84877 253.431138 
L 258.440214 254.175508 
L 260.031658 254.547692 
L 261.623102 256.036431 
L 263.214545 259.013908 
L 264.805989 259.013908 
L 266.397433 257.897354 
L 267.988877 260.502646 
L 269.580321 261.247015 
L 271.171765 260.502646 
L 272.763209 262.735754 
L 274.354652 261.991385 
L 275.946096 263.480123 
L 277.53754 263.852308 
L 282.311872 261.6192 
L 283.903316 258.269538 
L 285.494759 257.897354 
L 287.086203 256.036431 
L 288.677647 255.664246 
L 290.269091 255.664246 
L 291.860535 256.7808 
L 293.451979 256.408615 
L 295.043422 255.292062 
L 296.634866 256.036431 
L 299.817754 259.013908 
L 301.409198 261.6192 
L 303.000642 262.363569 
L 304.592086 262.363569 
L 306.183529 264.968862 
L 307.774973 266.085415 
L 309.366417 266.4576 
L 312.549305 270.923815 
L 314.140749 271.668185 
L 315.732193 275.390031 
L 317.323636 276.878769 
L 318.91508 280.228431 
L 320.506524 280.9728 
L 322.097968 283.205908 
L 323.689412 282.833723 
L 325.280856 283.950277 
L 326.872299 285.8112 
L 328.463743 288.044308 
L 330.055187 288.416492 
L 331.646631 288.416492 
L 333.238075 288.788677 
L 334.829519 289.533046 
L 338.012406 290.277415 
L 342.786738 292.510523 
L 344.378182 292.510523 
L 349.152513 293.627077 
L 350.743957 293.254892 
L 353.926845 293.254892 
L 355.518289 293.999262 
L 357.109733 293.999262 
L 358.701176 294.371446 
L 365.066952 294.371446 
L 366.658396 293.999262 
L 368.24984 294.371446 
L 380.98139 294.371446 
L 384.164278 295.115815 
L 396.895829 295.115815 
L 398.487273 295.488 
L 398.487273 295.488 
" style="fill:none;stroke:#55a868;stroke-linecap:round;stroke-width:1.5;"/>
   </g>
   <g id="line2d_20">
    <path clip-path="url(#p33a41c9e09)" d="M 73.832727 295.115815 
L 78.607059 295.115815 
L 80.198503 294.743631 
L 83.38139 294.743631 
L 88.155722 293.627077 
L 91.33861 293.627077 
L 97.704385 292.138338 
L 99.295829 290.6496 
L 100.887273 290.277415 
L 105.661604 286.927754 
L 107.253048 286.555569 
L 108.844492 285.066831 
L 110.435936 282.461538 
L 112.02738 280.9728 
L 115.210267 278.739692 
L 116.801711 276.1344 
L 118.393155 274.645662 
L 119.984599 272.040369 
L 121.576043 270.923815 
L 123.167487 267.201969 
L 124.75893 264.968862 
L 129.533262 257.152985 
L 131.124706 255.292062 
L 132.71615 253.058954 
L 134.307594 252.686769 
L 135.899037 250.825846 
L 137.490481 248.592738 
L 139.081925 247.104 
L 140.673369 246.731815 
L 142.264813 245.615262 
L 143.856257 243.754338 
L 145.447701 242.2656 
L 147.039144 241.521231 
L 150.222032 239.288123 
L 151.813476 238.915938 
L 153.40492 237.4272 
L 154.996364 237.055015 
L 156.587807 237.055015 
L 159.770695 236.310646 
L 162.953583 236.310646 
L 164.545027 235.938462 
L 166.136471 234.821908 
L 169.319358 234.821908 
L 172.502246 233.333169 
L 174.09369 231.844431 
L 177.276578 231.100062 
L 178.868021 231.100062 
L 180.459465 230.727877 
L 182.050909 229.983508 
L 183.642353 229.611323 
L 185.233797 227.7504 
L 186.825241 226.633846 
L 188.416684 223.284185 
L 190.008128 221.795446 
L 191.599572 219.934523 
L 193.191016 219.190154 
L 194.78246 215.840492 
L 197.965348 210.629908 
L 199.556791 206.908062 
L 201.148235 205.047138 
L 202.739679 202.069662 
L 204.331123 199.836554 
L 205.922567 196.859077 
L 207.514011 194.253785 
L 210.696898 189.787569 
L 212.288342 185.693538 
L 213.879786 182.343877 
L 215.47123 178.249846 
L 217.062674 175.272369 
L 218.654118 171.922708 
L 220.245561 168.945231 
L 221.837005 165.223385 
L 223.428449 162.618092 
L 225.019893 158.151877 
L 226.611337 155.1744 
L 228.202781 153.313477 
L 229.794225 151.080369 
L 231.385668 146.986338 
L 232.977112 144.008862 
L 234.568556 143.264492 
L 236.16 139.170462 
L 237.751444 135.448615 
L 239.342888 134.704246 
L 240.934332 131.726769 
L 242.525775 129.493662 
L 244.117219 126.144 
L 245.708663 124.655262 
L 247.300107 122.422154 
L 248.891551 120.933415 
L 250.482995 120.561231 
L 252.074439 119.816862 
L 255.257326 116.839385 
L 256.84877 116.095015 
L 258.440214 113.861908 
L 260.031658 112.373169 
L 261.623102 111.6288 
L 263.214545 110.512246 
L 264.805989 107.534769 
L 266.397433 105.673846 
L 267.988877 104.185108 
L 269.580321 101.207631 
L 271.171765 99.718892 
L 272.763209 98.974523 
L 274.354652 95.997046 
L 275.946096 94.136123 
L 277.53754 93.019569 
L 279.128984 90.042092 
L 280.720428 87.808985 
L 282.311872 86.692431 
L 283.903316 82.5984 
L 285.494759 80.737477 
L 287.086203 77.387815 
L 288.677647 76.271262 
L 290.269091 74.038154 
L 291.860535 73.665969 
L 293.451979 72.549415 
L 296.634866 68.0832 
L 298.22631 67.711015 
L 299.817754 67.711015 
L 301.409198 67.338831 
L 304.592086 65.850092 
L 306.183529 65.477908 
L 310.957861 63.2448 
L 312.549305 63.2448 
L 317.323636 62.128246 
L 318.91508 62.128246 
L 320.506524 61.756062 
L 322.097968 61.756062 
L 323.689412 61.011692 
L 325.280856 61.011692 
L 326.872299 60.639508 
L 334.829519 60.639508 
L 336.420963 60.267323 
L 349.152513 60.267323 
L 352.335401 59.522954 
L 365.066952 59.522954 
L 366.658396 59.150769 
L 398.487273 59.150769 
L 398.487273 59.150769 
" style="fill:none;stroke:#c44e52;stroke-linecap:round;stroke-width:1.5;"/>
   </g>
   <g id="line2d_21">
    <path clip-path="url(#p33a41c9e09)" d="M 73.832727 53.568 
L 129.533262 53.568 
L 131.124706 53.940185 
L 137.490481 53.940185 
L 139.081925 54.312369 
L 140.673369 54.312369 
L 143.856257 55.056738 
L 153.40492 55.056738 
L 154.996364 55.428923 
L 159.770695 55.428923 
L 161.362139 55.801108 
L 162.953583 55.801108 
L 164.545027 56.173292 
L 166.136471 56.173292 
L 169.319358 56.917662 
L 196.373904 56.917662 
L 197.965348 57.289846 
L 202.739679 57.289846 
L 204.331123 57.662031 
L 210.696898 57.662031 
L 212.288342 58.034215 
L 218.654118 58.034215 
L 220.245561 58.4064 
L 223.428449 58.4064 
L 226.611337 59.150769 
L 229.794225 59.150769 
L 231.385668 59.522954 
L 237.751444 59.522954 
L 239.342888 59.895138 
L 244.117219 59.895138 
L 245.708663 60.639508 
L 256.84877 60.639508 
L 258.440214 61.011692 
L 261.623102 61.011692 
L 263.214545 61.383877 
L 269.580321 61.383877 
L 271.171765 61.756062 
L 277.53754 61.756062 
L 279.128984 62.500431 
L 280.720428 62.872615 
L 282.311872 62.872615 
L 283.903316 63.2448 
L 288.677647 63.2448 
L 290.269091 63.616985 
L 295.043422 63.616985 
L 296.634866 63.989169 
L 299.817754 63.989169 
L 301.409198 64.361354 
L 309.366417 64.361354 
L 310.957861 64.733538 
L 312.549305 64.733538 
L 314.140749 65.105723 
L 317.323636 65.105723 
L 318.91508 65.477908 
L 326.872299 65.477908 
L 328.463743 65.850092 
L 398.487273 65.850092 
L 398.487273 65.850092 
" style="fill:none;stroke:#8172b3;stroke-linecap:round;stroke-width:1.5;"/>
   </g>
   <g id="patch_3">
    <path d="M 57.6 307.584 
L 57.6 41.472 
" style="fill:none;stroke:#cccccc;stroke-linecap:square;stroke-linejoin:miter;stroke-width:1.25;"/>
   </g>
   <g id="patch_4">
    <path d="M 414.72 307.584 
L 414.72 41.472 
" style="fill:none;stroke:#cccccc;stroke-linecap:square;stroke-linejoin:miter;stroke-width:1.25;"/>
   </g>
   <g id="patch_5">
    <path d="M 57.6 307.584 
L 414.72 307.584 
" style="fill:none;stroke:#cccccc;stroke-linecap:square;stroke-linejoin:miter;stroke-width:1.25;"/>
   </g>
   <g id="patch_6">
    <path d="M 57.6 41.472 
L 414.72 41.472 
" style="fill:none;stroke:#cccccc;stroke-linecap:square;stroke-linejoin:miter;stroke-width:1.25;"/>
   </g>
   <g id="text_19">
    <!-- Infection Simulation -->
    <defs>
     <path d="M 9.328125 0 
L 9.328125 71.578125 
L 18.796875 71.578125 
L 18.796875 0 
z
" id="ArialMT-73"/>
     <path d="M 8.6875 0 
L 8.6875 45.015625 
L 0.921875 45.015625 
L 0.921875 51.859375 
L 8.6875 51.859375 
L 8.6875 57.375 
Q 8.6875 62.59375 9.625 65.140625 
Q 10.890625 68.5625 14.078125 70.671875 
Q 17.28125 72.796875 23.046875 72.796875 
Q 26.765625 72.796875 31.25 71.921875 
L 29.9375 64.265625 
Q 27.203125 64.75 24.75 64.75 
Q 20.75 64.75 19.09375 63.03125 
Q 17.4375 61.328125 17.4375 56.640625 
L 17.4375 51.859375 
L 27.546875 51.859375 
L 27.546875 45.015625 
L 17.4375 45.015625 
L 17.4375 0 
z
" id="ArialMT-102"/>
     <path d="M 40.4375 19 
L 49.078125 17.875 
Q 47.65625 8.9375 41.8125 3.875 
Q 35.984375 -1.171875 27.484375 -1.171875 
Q 16.84375 -1.171875 10.375 5.78125 
Q 3.90625 12.75 3.90625 25.734375 
Q 3.90625 34.125 6.6875 40.421875 
Q 9.46875 46.734375 15.15625 49.875 
Q 20.84375 53.03125 27.546875 53.03125 
Q 35.984375 53.03125 41.359375 48.75 
Q 46.734375 44.484375 48.25 36.625 
L 39.703125 35.296875 
Q 38.484375 40.53125 35.375 43.15625 
Q 32.28125 45.796875 27.875 45.796875 
Q 21.234375 45.796875 17.078125 41.03125 
Q 12.9375 36.28125 12.9375 25.984375 
Q 12.9375 15.53125 16.9375 10.796875 
Q 20.953125 6.0625 27.390625 6.0625 
Q 32.5625 6.0625 36.03125 9.234375 
Q 39.5 12.40625 40.4375 19 
z
" id="ArialMT-99"/>
     <path d="M 4.5 23 
L 13.421875 23.78125 
Q 14.0625 18.40625 16.375 14.96875 
Q 18.703125 11.53125 23.578125 9.40625 
Q 28.46875 7.28125 34.578125 7.28125 
Q 39.984375 7.28125 44.140625 8.890625 
Q 48.296875 10.5 50.3125 13.296875 
Q 52.34375 16.109375 52.34375 19.4375 
Q 52.34375 22.796875 50.390625 25.3125 
Q 48.4375 27.828125 43.953125 29.546875 
Q 41.0625 30.671875 31.203125 33.03125 
Q 21.34375 35.40625 17.390625 37.5 
Q 12.25 40.1875 9.734375 44.15625 
Q 7.234375 48.140625 7.234375 53.078125 
Q 7.234375 58.5 10.296875 63.203125 
Q 13.375 67.921875 19.28125 70.359375 
Q 25.203125 72.796875 32.421875 72.796875 
Q 40.375 72.796875 46.453125 70.234375 
Q 52.546875 67.671875 55.8125 62.6875 
Q 59.078125 57.71875 59.328125 51.421875 
L 50.25 50.734375 
Q 49.515625 57.515625 45.28125 60.984375 
Q 41.0625 64.453125 32.8125 64.453125 
Q 24.21875 64.453125 20.28125 61.296875 
Q 16.359375 58.15625 16.359375 53.71875 
Q 16.359375 49.859375 19.140625 47.359375 
Q 21.875 44.875 33.421875 42.265625 
Q 44.96875 39.65625 49.265625 37.703125 
Q 55.515625 34.8125 58.484375 30.390625 
Q 61.46875 25.984375 61.46875 20.21875 
Q 61.46875 14.5 58.203125 9.4375 
Q 54.9375 4.390625 48.796875 1.578125 
Q 42.671875 -1.21875 35.015625 -1.21875 
Q 25.296875 -1.21875 18.71875 1.609375 
Q 12.15625 4.4375 8.421875 10.125 
Q 4.6875 15.828125 4.5 23 
z
" id="ArialMT-83"/>
    </defs>
    <g style="fill:#262626;" transform="translate(183.800625 35.472)scale(0.12 -0.12)">
     <use xlink:href="#ArialMT-73"/>
     <use x="27.783203" xlink:href="#ArialMT-110"/>
     <use x="83.398438" xlink:href="#ArialMT-102"/>
     <use x="111.181641" xlink:href="#ArialMT-101"/>
     <use x="166.796875" xlink:href="#ArialMT-99"/>
     <use x="216.796875" xlink:href="#ArialMT-116"/>
     <use x="244.580078" xlink:href="#ArialMT-105"/>
     <use x="266.796875" xlink:href="#ArialMT-111"/>
     <use x="322.412109" xlink:href="#ArialMT-110"/>
     <use x="378.027344" xlink:href="#ArialMT-32"/>
     <use x="405.810547" xlink:href="#ArialMT-83"/>
     <use x="472.509766" xlink:href="#ArialMT-105"/>
     <use x="494.726562" xlink:href="#ArialMT-109"/>
     <use x="578.027344" xlink:href="#ArialMT-117"/>
     <use x="633.642578" xlink:href="#ArialMT-108"/>
     <use x="655.859375" xlink:href="#ArialMT-97"/>
     <use x="711.474609" xlink:href="#ArialMT-116"/>
     <use x="739.257812" xlink:href="#ArialMT-105"/>
     <use x="761.474609" xlink:href="#ArialMT-111"/>
     <use x="817.089844" xlink:href="#ArialMT-110"/>
    </g>
   </g>
   <g id="legend_1">
    <g id="patch_7">
     <path d="M 285.007656 215.209094 
L 407.02 215.209094 
Q 409.22 215.209094 409.22 213.009094 
L 409.22 136.046906 
Q 409.22 133.846906 407.02 133.846906 
L 285.007656 133.846906 
Q 282.807656 133.846906 282.807656 136.046906 
L 282.807656 213.009094 
Q 282.807656 215.209094 285.007656 215.209094 
z
" style="fill:#ffffff;opacity:0.8;stroke:#cccccc;stroke-linejoin:miter;"/>
    </g>
    <g id="line2d_22">
     <path d="M 287.207656 142.2705 
L 309.207656 142.2705 
" style="fill:none;stroke:#4c72b0;stroke-linecap:round;stroke-width:1.5;"/>
    </g>
    <g id="line2d_23"/>
    <g id="text_20">
     <!-- Dead -->
     <defs>
      <path d="M 7.71875 0 
L 7.71875 71.578125 
L 32.375 71.578125 
Q 40.71875 71.578125 45.125 70.5625 
Q 51.265625 69.140625 55.609375 65.4375 
Q 61.28125 60.640625 64.078125 53.1875 
Q 66.890625 45.75 66.890625 36.1875 
Q 66.890625 28.03125 64.984375 21.734375 
Q 63.09375 15.4375 60.109375 11.296875 
Q 57.125 7.171875 53.578125 4.796875 
Q 50.046875 2.4375 45.046875 1.21875 
Q 40.046875 0 33.546875 0 
z
M 17.1875 8.453125 
L 32.46875 8.453125 
Q 39.546875 8.453125 43.578125 9.765625 
Q 47.609375 11.078125 50 13.484375 
Q 53.375 16.84375 55.25 22.53125 
Q 57.125 28.21875 57.125 36.328125 
Q 57.125 47.5625 53.4375 53.59375 
Q 49.75 59.625 44.484375 61.671875 
Q 40.671875 63.140625 32.234375 63.140625 
L 17.1875 63.140625 
z
" id="ArialMT-68"/>
      <path d="M 40.234375 0 
L 40.234375 6.546875 
Q 35.296875 -1.171875 25.734375 -1.171875 
Q 19.53125 -1.171875 14.328125 2.25 
Q 9.125 5.671875 6.265625 11.796875 
Q 3.421875 17.921875 3.421875 25.875 
Q 3.421875 33.640625 6 39.96875 
Q 8.59375 46.296875 13.765625 49.65625 
Q 18.953125 53.03125 25.34375 53.03125 
Q 30.03125 53.03125 33.6875 51.046875 
Q 37.359375 49.078125 39.65625 45.90625 
L 39.65625 71.578125 
L 48.390625 71.578125 
L 48.390625 0 
z
M 12.453125 25.875 
Q 12.453125 15.921875 16.640625 10.984375 
Q 20.84375 6.0625 26.5625 6.0625 
Q 32.328125 6.0625 36.34375 10.765625 
Q 40.375 15.484375 40.375 25.140625 
Q 40.375 35.796875 36.265625 40.765625 
Q 32.171875 45.75 26.171875 45.75 
Q 20.3125 45.75 16.375 40.96875 
Q 12.453125 36.1875 12.453125 25.875 
z
" id="ArialMT-100"/>
     </defs>
     <g style="fill:#262626;" transform="translate(318.007656 146.1205)scale(0.11 -0.11)">
      <use xlink:href="#ArialMT-68"/>
      <use x="72.216797" xlink:href="#ArialMT-101"/>
      <use x="127.832031" xlink:href="#ArialMT-97"/>
      <use x="183.447266" xlink:href="#ArialMT-100"/>
     </g>
    </g>
    <g id="line2d_24">
     <path d="M 287.207656 157.830344 
L 309.207656 157.830344 
" style="fill:none;stroke:#dd8452;stroke-linecap:round;stroke-width:1.5;"/>
    </g>
    <g id="line2d_25"/>
    <g id="text_21">
     <!-- Immune -->
     <g style="fill:#262626;" transform="translate(318.007656 161.680344)scale(0.11 -0.11)">
      <use xlink:href="#ArialMT-73"/>
      <use x="27.783203" xlink:href="#ArialMT-109"/>
      <use x="111.083984" xlink:href="#ArialMT-109"/>
      <use x="194.384766" xlink:href="#ArialMT-117"/>
      <use x="250" xlink:href="#ArialMT-110"/>
      <use x="305.615234" xlink:href="#ArialMT-101"/>
     </g>
    </g>
    <g id="line2d_26">
     <path d="M 287.207656 173.52425 
L 309.207656 173.52425 
" style="fill:none;stroke:#55a868;stroke-linecap:round;stroke-width:1.5;"/>
    </g>
    <g id="line2d_27"/>
    <g id="text_22">
     <!-- Currently Infected -->
     <defs>
      <path d="M 6.5 0 
L 6.5 51.859375 
L 14.40625 51.859375 
L 14.40625 44 
Q 17.4375 49.515625 20 51.265625 
Q 22.5625 53.03125 25.640625 53.03125 
Q 30.078125 53.03125 34.671875 50.203125 
L 31.640625 42.046875 
Q 28.421875 43.953125 25.203125 43.953125 
Q 22.3125 43.953125 20.015625 42.21875 
Q 17.71875 40.484375 16.75 37.40625 
Q 15.28125 32.71875 15.28125 27.15625 
L 15.28125 0 
z
" id="ArialMT-114"/>
      <path d="M 6.203125 -19.96875 
L 5.21875 -11.71875 
Q 8.109375 -12.5 10.25 -12.5 
Q 13.1875 -12.5 14.9375 -11.515625 
Q 16.703125 -10.546875 17.828125 -8.796875 
Q 18.65625 -7.46875 20.515625 -2.25 
Q 20.75 -1.515625 21.296875 -0.09375 
L 1.609375 51.859375 
L 11.078125 51.859375 
L 21.875 21.828125 
Q 23.96875 16.109375 25.640625 9.8125 
Q 27.15625 15.875 29.25 21.625 
L 40.328125 51.859375 
L 49.125 51.859375 
L 29.390625 -0.875 
Q 26.21875 -9.421875 24.46875 -12.640625 
Q 22.125 -17 19.09375 -19.015625 
Q 16.0625 -21.046875 11.859375 -21.046875 
Q 9.328125 -21.046875 6.203125 -19.96875 
z
" id="ArialMT-121"/>
     </defs>
     <g style="fill:#262626;" transform="translate(318.007656 177.37425)scale(0.11 -0.11)">
      <use xlink:href="#ArialMT-67"/>
      <use x="72.216797" xlink:href="#ArialMT-117"/>
      <use x="127.832031" xlink:href="#ArialMT-114"/>
      <use x="161.132812" xlink:href="#ArialMT-114"/>
      <use x="194.433594" xlink:href="#ArialMT-101"/>
      <use x="250.048828" xlink:href="#ArialMT-110"/>
      <use x="305.664062" xlink:href="#ArialMT-116"/>
      <use x="333.447266" xlink:href="#ArialMT-108"/>
      <use x="355.664062" xlink:href="#ArialMT-121"/>
      <use x="405.664062" xlink:href="#ArialMT-32"/>
      <use x="433.447266" xlink:href="#ArialMT-73"/>
      <use x="461.230469" xlink:href="#ArialMT-110"/>
      <use x="516.845703" xlink:href="#ArialMT-102"/>
      <use x="544.628906" xlink:href="#ArialMT-101"/>
      <use x="600.244141" xlink:href="#ArialMT-99"/>
      <use x="650.244141" xlink:href="#ArialMT-116"/>
      <use x="678.027344" xlink:href="#ArialMT-101"/>
      <use x="733.642578" xlink:href="#ArialMT-100"/>
     </g>
    </g>
    <g id="line2d_28">
     <path d="M 287.207656 189.213 
L 309.207656 189.213 
" style="fill:none;stroke:#c44e52;stroke-linecap:round;stroke-width:1.5;"/>
    </g>
    <g id="line2d_29"/>
    <g id="text_23">
     <!-- Ever Infected -->
     <defs>
      <path d="M 7.90625 0 
L 7.90625 71.578125 
L 59.671875 71.578125 
L 59.671875 63.140625 
L 17.390625 63.140625 
L 17.390625 41.21875 
L 56.984375 41.21875 
L 56.984375 32.8125 
L 17.390625 32.8125 
L 17.390625 8.453125 
L 61.328125 8.453125 
L 61.328125 0 
z
" id="ArialMT-69"/>
      <path d="M 21 0 
L 1.265625 51.859375 
L 10.546875 51.859375 
L 21.6875 20.796875 
Q 23.484375 15.765625 25 10.359375 
Q 26.171875 14.453125 28.265625 20.21875 
L 39.796875 51.859375 
L 48.828125 51.859375 
L 29.203125 0 
z
" id="ArialMT-118"/>
     </defs>
     <g style="fill:#262626;" transform="translate(318.007656 193.063)scale(0.11 -0.11)">
      <use xlink:href="#ArialMT-69"/>
      <use x="66.699219" xlink:href="#ArialMT-118"/>
      <use x="116.699219" xlink:href="#ArialMT-101"/>
      <use x="172.314453" xlink:href="#ArialMT-114"/>
      <use x="205.615234" xlink:href="#ArialMT-32"/>
      <use x="233.398438" xlink:href="#ArialMT-73"/>
      <use x="261.181641" xlink:href="#ArialMT-110"/>
      <use x="316.796875" xlink:href="#ArialMT-102"/>
      <use x="344.580078" xlink:href="#ArialMT-101"/>
      <use x="400.195312" xlink:href="#ArialMT-99"/>
      <use x="450.195312" xlink:href="#ArialMT-116"/>
      <use x="477.978516" xlink:href="#ArialMT-101"/>
      <use x="533.59375" xlink:href="#ArialMT-100"/>
     </g>
    </g>
    <g id="line2d_30">
     <path d="M 287.207656 204.772844 
L 309.207656 204.772844 
" style="fill:none;stroke:#8172b3;stroke-linecap:round;stroke-width:1.5;"/>
    </g>
    <g id="line2d_31"/>
    <g id="text_24">
     <!-- Total Population -->
     <g style="fill:#262626;" transform="translate(318.007656 208.622844)scale(0.11 -0.11)">
      <use xlink:href="#ArialMT-84"/>
      <use x="49.958984" xlink:href="#ArialMT-111"/>
      <use x="105.574219" xlink:href="#ArialMT-116"/>
      <use x="133.357422" xlink:href="#ArialMT-97"/>
      <use x="188.972656" xlink:href="#ArialMT-108"/>
      <use x="211.189453" xlink:href="#ArialMT-32"/>
      <use x="238.972656" xlink:href="#ArialMT-80"/>
      <use x="305.671875" xlink:href="#ArialMT-111"/>
      <use x="361.287109" xlink:href="#ArialMT-112"/>
      <use x="416.902344" xlink:href="#ArialMT-117"/>
      <use x="472.517578" xlink:href="#ArialMT-108"/>
      <use x="494.734375" xlink:href="#ArialMT-97"/>
      <use x="550.349609" xlink:href="#ArialMT-116"/>
      <use x="578.132812" xlink:href="#ArialMT-105"/>
      <use x="600.349609" xlink:href="#ArialMT-111"/>
      <use x="655.964844" xlink:href="#ArialMT-110"/>
     </g>
    </g>
   </g>
  </g>
 </g>
 <defs>
  <clipPath id="p33a41c9e09">
   <rect height="266.112" width="357.12" x="57.6" y="41.472"/>
  </clipPath>
 </defs>
</svg>
