<?xml version="1.0" encoding="utf-8" standalone="no"?>
<!DOCTYPE svg PUBLIC "-//W3C//DTD SVG 1.1//EN"
  "http://www.w3.org/Graphics/SVG/1.1/DTD/svg11.dtd">
<!-- Created with matplotlib (https://matplotlib.org/) -->
<svg height="345.6pt" version="1.1" viewBox="0 0 460.8 345.6" width="460.8pt" xmlns="http://www.w3.org/2000/svg" xmlns:xlink="http://www.w3.org/1999/xlink">
 <defs>
  <style type="text/css">
*{stroke-linecap:butt;stroke-linejoin:round;}
  </style>
 </defs>
 <g id="figure_1">
  <g id="patch_1">
   <path d="M 0 345.6 
L 460.8 345.6 
L 460.8 0 
L 0 0 
z
" style="fill:#ffffff;"/>
  </g>
  <g id="axes_1">
   <g id="patch_2">
    <path d="M 57.6 307.584 
L 414.72 307.584 
L 414.72 41.472 
L 57.6 41.472 
z
" style="fill:#ffffff;"/>
   </g>
   <g id="matplotlib.axis_1">
    <g id="xtick_1">
     <g id="line2d_1">
      <path clip-path="url(#p5ea7faf9b2)" d="M 73.832727 307.584 
L 73.832727 41.472 
" style="fill:none;stroke:#cccccc;stroke-linecap:round;"/>
     </g>
     <g id="text_1">
      <!-- 0 -->
      <defs>
       <path d="M 4.15625 35.296875 
Q 4.15625 48 6.765625 55.734375 
Q 9.375 63.484375 14.515625 67.671875 
Q 19.671875 71.875 27.484375 71.875 
Q 33.25 71.875 37.59375 69.546875 
Q 41.9375 67.234375 44.765625 62.859375 
Q 47.609375 58.5 49.21875 52.21875 
Q 50.828125 45.953125 50.828125 35.296875 
Q 50.828125 22.703125 48.234375 14.96875 
Q 45.65625 7.234375 40.5 3 
Q 35.359375 -1.21875 27.484375 -1.21875 
Q 17.140625 -1.21875 11.234375 6.203125 
Q 4.15625 15.140625 4.15625 35.296875 
z
M 13.1875 35.296875 
Q 13.1875 17.671875 17.3125 11.828125 
Q 21.4375 6 27.484375 6 
Q 33.546875 6 37.671875 11.859375 
Q 41.796875 17.71875 41.796875 35.296875 
Q 41.796875 52.984375 37.671875 58.78125 
Q 33.546875 64.59375 27.390625 64.59375 
Q 21.34375 64.59375 17.71875 59.46875 
Q 13.1875 52.9375 13.1875 35.296875 
z
" id="ArialMT-48"/>
      </defs>
      <g style="fill:#262626;" transform="translate(70.774212 324.957594)scale(0.11 -0.11)">
       <use xlink:href="#ArialMT-48"/>
      </g>
     </g>
    </g>
    <g id="xtick_2">
     <g id="line2d_2">
      <path clip-path="url(#p5ea7faf9b2)" d="M 119.175541 307.584 
L 119.175541 41.472 
" style="fill:none;stroke:#cccccc;stroke-linecap:round;"/>
     </g>
     <g id="text_2">
      <!-- 25 -->
      <defs>
       <path d="M 50.34375 8.453125 
L 50.34375 0 
L 3.03125 0 
Q 2.9375 3.171875 4.046875 6.109375 
Q 5.859375 10.9375 9.828125 15.625 
Q 13.8125 20.3125 21.34375 26.46875 
Q 33.015625 36.03125 37.109375 41.625 
Q 41.21875 47.21875 41.21875 52.203125 
Q 41.21875 57.421875 37.46875 61 
Q 33.734375 64.59375 27.734375 64.59375 
Q 21.390625 64.59375 17.578125 60.78125 
Q 13.765625 56.984375 13.71875 50.25 
L 4.6875 51.171875 
Q 5.609375 61.28125 11.65625 66.578125 
Q 17.71875 71.875 27.9375 71.875 
Q 38.234375 71.875 44.234375 66.15625 
Q 50.25 60.453125 50.25 52 
Q 50.25 47.703125 48.484375 43.546875 
Q 46.734375 39.40625 42.65625 34.8125 
Q 38.578125 30.21875 29.109375 22.21875 
Q 21.1875 15.578125 18.9375 13.203125 
Q 16.703125 10.84375 15.234375 8.453125 
z
" id="ArialMT-50"/>
       <path d="M 4.15625 18.75 
L 13.375 19.53125 
Q 14.40625 12.796875 18.140625 9.390625 
Q 21.875 6 27.15625 6 
Q 33.5 6 37.890625 10.78125 
Q 42.28125 15.578125 42.28125 23.484375 
Q 42.28125 31 38.0625 35.34375 
Q 33.84375 39.703125 27 39.703125 
Q 22.75 39.703125 19.328125 37.765625 
Q 15.921875 35.84375 13.96875 32.765625 
L 5.71875 33.84375 
L 12.640625 70.609375 
L 48.25 70.609375 
L 48.25 62.203125 
L 19.671875 62.203125 
L 15.828125 42.96875 
Q 22.265625 47.46875 29.34375 47.46875 
Q 38.71875 47.46875 45.15625 40.96875 
Q 51.609375 34.46875 51.609375 24.265625 
Q 51.609375 14.546875 45.953125 7.46875 
Q 39.0625 -1.21875 27.15625 -1.21875 
Q 17.390625 -1.21875 11.203125 4.25 
Q 5.03125 9.71875 4.15625 18.75 
z
" id="ArialMT-53"/>
      </defs>
      <g style="fill:#262626;" transform="translate(113.05851 324.957594)scale(0.11 -0.11)">
       <use xlink:href="#ArialMT-50"/>
       <use x="55.615234" xlink:href="#ArialMT-53"/>
      </g>
     </g>
    </g>
    <g id="xtick_3">
     <g id="line2d_3">
      <path clip-path="url(#p5ea7faf9b2)" d="M 164.518354 307.584 
L 164.518354 41.472 
" style="fill:none;stroke:#cccccc;stroke-linecap:round;"/>
     </g>
     <g id="text_3">
      <!-- 50 -->
      <g style="fill:#262626;" transform="translate(158.401323 324.957594)scale(0.11 -0.11)">
       <use xlink:href="#ArialMT-53"/>
       <use x="55.615234" xlink:href="#ArialMT-48"/>
      </g>
     </g>
    </g>
    <g id="xtick_4">
     <g id="line2d_4">
      <path clip-path="url(#p5ea7faf9b2)" d="M 209.861168 307.584 
L 209.861168 41.472 
" style="fill:none;stroke:#cccccc;stroke-linecap:round;"/>
     </g>
     <g id="text_4">
      <!-- 75 -->
      <defs>
       <path d="M 4.734375 62.203125 
L 4.734375 70.65625 
L 51.078125 70.65625 
L 51.078125 63.8125 
Q 44.234375 56.546875 37.515625 44.484375 
Q 30.8125 32.421875 27.15625 19.671875 
Q 24.515625 10.6875 23.78125 0 
L 14.75 0 
Q 14.890625 8.453125 18.0625 20.40625 
Q 21.234375 32.375 27.171875 43.484375 
Q 33.109375 54.59375 39.796875 62.203125 
z
" id="ArialMT-55"/>
      </defs>
      <g style="fill:#262626;" transform="translate(203.744137 324.957594)scale(0.11 -0.11)">
       <use xlink:href="#ArialMT-55"/>
       <use x="55.615234" xlink:href="#ArialMT-53"/>
      </g>
     </g>
    </g>
    <g id="xtick_5">
     <g id="line2d_5">
      <path clip-path="url(#p5ea7faf9b2)" d="M 255.203982 307.584 
L 255.203982 41.472 
" style="fill:none;stroke:#cccccc;stroke-linecap:round;"/>
     </g>
     <g id="text_5">
      <!-- 100 -->
      <defs>
       <path d="M 37.25 0 
L 28.46875 0 
L 28.46875 56 
Q 25.296875 52.984375 20.140625 49.953125 
Q 14.984375 46.921875 10.890625 45.40625 
L 10.890625 53.90625 
Q 18.265625 57.375 23.78125 62.296875 
Q 29.296875 67.234375 31.59375 71.875 
L 37.25 71.875 
z
" id="ArialMT-49"/>
      </defs>
      <g style="fill:#262626;" transform="translate(246.028435 324.957594)scale(0.11 -0.11)">
       <use xlink:href="#ArialMT-49"/>
       <use x="55.615234" xlink:href="#ArialMT-48"/>
       <use x="111.230469" xlink:href="#ArialMT-48"/>
      </g>
     </g>
    </g>
    <g id="xtick_6">
     <g id="line2d_6">
      <path clip-path="url(#p5ea7faf9b2)" d="M 300.546795 307.584 
L 300.546795 41.472 
" style="fill:none;stroke:#cccccc;stroke-linecap:round;"/>
     </g>
     <g id="text_6">
      <!-- 125 -->
      <g style="fill:#262626;" transform="translate(291.371248 324.957594)scale(0.11 -0.11)">
       <use xlink:href="#ArialMT-49"/>
       <use x="55.615234" xlink:href="#ArialMT-50"/>
       <use x="111.230469" xlink:href="#ArialMT-53"/>
      </g>
     </g>
    </g>
    <g id="xtick_7">
     <g id="line2d_7">
      <path clip-path="url(#p5ea7faf9b2)" d="M 345.889609 307.584 
L 345.889609 41.472 
" style="fill:none;stroke:#cccccc;stroke-linecap:round;"/>
     </g>
     <g id="text_7">
      <!-- 150 -->
      <g style="fill:#262626;" transform="translate(336.714062 324.957594)scale(0.11 -0.11)">
       <use xlink:href="#ArialMT-49"/>
       <use x="55.615234" xlink:href="#ArialMT-53"/>
       <use x="111.230469" xlink:href="#ArialMT-48"/>
      </g>
     </g>
    </g>
    <g id="xtick_8">
     <g id="line2d_8">
      <path clip-path="url(#p5ea7faf9b2)" d="M 391.232423 307.584 
L 391.232423 41.472 
" style="fill:none;stroke:#cccccc;stroke-linecap:round;"/>
     </g>
     <g id="text_8">
      <!-- 175 -->
      <g style="fill:#262626;" transform="translate(382.056876 324.957594)scale(0.11 -0.11)">
       <use xlink:href="#ArialMT-49"/>
       <use x="55.615234" xlink:href="#ArialMT-55"/>
       <use x="111.230469" xlink:href="#ArialMT-53"/>
      </g>
     </g>
    </g>
    <g id="text_9">
     <!-- Time -->
     <defs>
      <path d="M 25.921875 0 
L 25.921875 63.140625 
L 2.34375 63.140625 
L 2.34375 71.578125 
L 59.078125 71.578125 
L 59.078125 63.140625 
L 35.40625 63.140625 
L 35.40625 0 
z
" id="ArialMT-84"/>
      <path d="M 6.640625 61.46875 
L 6.640625 71.578125 
L 15.4375 71.578125 
L 15.4375 61.46875 
z
M 6.640625 0 
L 6.640625 51.859375 
L 15.4375 51.859375 
L 15.4375 0 
z
" id="ArialMT-105"/>
      <path d="M 6.59375 0 
L 6.59375 51.859375 
L 14.453125 51.859375 
L 14.453125 44.578125 
Q 16.890625 48.390625 20.9375 50.703125 
Q 25 53.03125 30.171875 53.03125 
Q 35.9375 53.03125 39.625 50.640625 
Q 43.3125 48.25 44.828125 43.953125 
Q 50.984375 53.03125 60.84375 53.03125 
Q 68.5625 53.03125 72.703125 48.75 
Q 76.859375 44.484375 76.859375 35.59375 
L 76.859375 0 
L 68.109375 0 
L 68.109375 32.671875 
Q 68.109375 37.9375 67.25 40.25 
Q 66.40625 42.578125 64.15625 43.984375 
Q 61.921875 45.40625 58.890625 45.40625 
Q 53.421875 45.40625 49.796875 41.765625 
Q 46.1875 38.140625 46.1875 30.125 
L 46.1875 0 
L 37.40625 0 
L 37.40625 33.6875 
Q 37.40625 39.546875 35.25 42.46875 
Q 33.109375 45.40625 28.21875 45.40625 
Q 24.515625 45.40625 21.359375 43.453125 
Q 18.21875 41.5 16.796875 37.734375 
Q 15.375 33.984375 15.375 26.90625 
L 15.375 0 
z
" id="ArialMT-109"/>
      <path d="M 42.09375 16.703125 
L 51.171875 15.578125 
Q 49.03125 7.625 43.21875 3.21875 
Q 37.40625 -1.171875 28.375 -1.171875 
Q 17 -1.171875 10.328125 5.828125 
Q 3.65625 12.84375 3.65625 25.484375 
Q 3.65625 38.578125 10.390625 45.796875 
Q 17.140625 53.03125 27.875 53.03125 
Q 38.28125 53.03125 44.875 45.953125 
Q 51.46875 38.875 51.46875 26.03125 
Q 51.46875 25.25 51.421875 23.6875 
L 12.75 23.6875 
Q 13.234375 15.140625 17.578125 10.59375 
Q 21.921875 6.0625 28.421875 6.0625 
Q 33.25 6.0625 36.671875 8.59375 
Q 40.09375 11.140625 42.09375 16.703125 
z
M 13.234375 30.90625 
L 42.1875 30.90625 
Q 41.609375 37.453125 38.875 40.71875 
Q 34.671875 45.796875 27.984375 45.796875 
Q 21.921875 45.796875 17.796875 41.75 
Q 13.671875 37.703125 13.234375 30.90625 
z
" id="ArialMT-101"/>
     </defs>
     <g style="fill:#262626;" transform="translate(223.052812 339.733219)scale(0.12 -0.12)">
      <use xlink:href="#ArialMT-84"/>
      <use x="57.333984" xlink:href="#ArialMT-105"/>
      <use x="79.550781" xlink:href="#ArialMT-109"/>
      <use x="162.851562" xlink:href="#ArialMT-101"/>
     </g>
    </g>
   </g>
   <g id="matplotlib.axis_2">
    <g id="ytick_1">
     <g id="line2d_9">
      <path clip-path="url(#p5ea7faf9b2)" d="M 57.6 295.488 
L 414.72 295.488 
" style="fill:none;stroke:#cccccc;stroke-linecap:round;"/>
     </g>
     <g id="text_10">
      <!-- 0 -->
      <g style="fill:#262626;" transform="translate(41.982969 299.424797)scale(0.11 -0.11)">
       <use xlink:href="#ArialMT-48"/>
      </g>
     </g>
    </g>
    <g id="ytick_2">
     <g id="line2d_10">
      <path clip-path="url(#p5ea7faf9b2)" d="M 57.6 258.269538 
L 414.72 258.269538 
" style="fill:none;stroke:#cccccc;stroke-linecap:round;"/>
     </g>
     <g id="text_11">
      <!-- 100 -->
      <g style="fill:#262626;" transform="translate(29.748906 262.206335)scale(0.11 -0.11)">
       <use xlink:href="#ArialMT-49"/>
       <use x="55.615234" xlink:href="#ArialMT-48"/>
       <use x="111.230469" xlink:href="#ArialMT-48"/>
      </g>
     </g>
    </g>
    <g id="ytick_3">
     <g id="line2d_11">
      <path clip-path="url(#p5ea7faf9b2)" d="M 57.6 221.051077 
L 414.72 221.051077 
" style="fill:none;stroke:#cccccc;stroke-linecap:round;"/>
     </g>
     <g id="text_12">
      <!-- 200 -->
      <g style="fill:#262626;" transform="translate(29.748906 224.987874)scale(0.11 -0.11)">
       <use xlink:href="#ArialMT-50"/>
       <use x="55.615234" xlink:href="#ArialMT-48"/>
       <use x="111.230469" xlink:href="#ArialMT-48"/>
      </g>
     </g>
    </g>
    <g id="ytick_4">
     <g id="line2d_12">
      <path clip-path="url(#p5ea7faf9b2)" d="M 57.6 183.832615 
L 414.72 183.832615 
" style="fill:none;stroke:#cccccc;stroke-linecap:round;"/>
     </g>
     <g id="text_13">
      <!-- 300 -->
      <defs>
       <path d="M 4.203125 18.890625 
L 12.984375 20.0625 
Q 14.5 12.59375 18.140625 9.296875 
Q 21.78125 6 27 6 
Q 33.203125 6 37.46875 10.296875 
Q 41.75 14.59375 41.75 20.953125 
Q 41.75 27 37.796875 30.921875 
Q 33.84375 34.859375 27.734375 34.859375 
Q 25.25 34.859375 21.53125 33.890625 
L 22.515625 41.609375 
Q 23.390625 41.5 23.921875 41.5 
Q 29.546875 41.5 34.03125 44.421875 
Q 38.53125 47.359375 38.53125 53.46875 
Q 38.53125 58.296875 35.25 61.46875 
Q 31.984375 64.65625 26.8125 64.65625 
Q 21.6875 64.65625 18.265625 61.421875 
Q 14.84375 58.203125 13.875 51.765625 
L 5.078125 53.328125 
Q 6.6875 62.15625 12.390625 67.015625 
Q 18.109375 71.875 26.609375 71.875 
Q 32.46875 71.875 37.390625 69.359375 
Q 42.328125 66.84375 44.9375 62.5 
Q 47.5625 58.15625 47.5625 53.265625 
Q 47.5625 48.640625 45.0625 44.828125 
Q 42.578125 41.015625 37.703125 38.765625 
Q 44.046875 37.3125 47.5625 32.6875 
Q 51.078125 28.078125 51.078125 21.140625 
Q 51.078125 11.765625 44.234375 5.25 
Q 37.40625 -1.265625 26.953125 -1.265625 
Q 17.53125 -1.265625 11.296875 4.34375 
Q 5.078125 9.96875 4.203125 18.890625 
z
" id="ArialMT-51"/>
      </defs>
      <g style="fill:#262626;" transform="translate(29.748906 187.769412)scale(0.11 -0.11)">
       <use xlink:href="#ArialMT-51"/>
       <use x="55.615234" xlink:href="#ArialMT-48"/>
       <use x="111.230469" xlink:href="#ArialMT-48"/>
      </g>
     </g>
    </g>
    <g id="ytick_5">
     <g id="line2d_13">
      <path clip-path="url(#p5ea7faf9b2)" d="M 57.6 146.614154 
L 414.72 146.614154 
" style="fill:none;stroke:#cccccc;stroke-linecap:round;"/>
     </g>
     <g id="text_14">
      <!-- 400 -->
      <defs>
       <path d="M 32.328125 0 
L 32.328125 17.140625 
L 1.265625 17.140625 
L 1.265625 25.203125 
L 33.9375 71.578125 
L 41.109375 71.578125 
L 41.109375 25.203125 
L 50.78125 25.203125 
L 50.78125 17.140625 
L 41.109375 17.140625 
L 41.109375 0 
z
M 32.328125 25.203125 
L 32.328125 57.46875 
L 9.90625 25.203125 
z
" id="ArialMT-52"/>
      </defs>
      <g style="fill:#262626;" transform="translate(29.748906 150.550951)scale(0.11 -0.11)">
       <use xlink:href="#ArialMT-52"/>
       <use x="55.615234" xlink:href="#ArialMT-48"/>
       <use x="111.230469" xlink:href="#ArialMT-48"/>
      </g>
     </g>
    </g>
    <g id="ytick_6">
     <g id="line2d_14">
      <path clip-path="url(#p5ea7faf9b2)" d="M 57.6 109.395692 
L 414.72 109.395692 
" style="fill:none;stroke:#cccccc;stroke-linecap:round;"/>
     </g>
     <g id="text_15">
      <!-- 500 -->
      <g style="fill:#262626;" transform="translate(29.748906 113.332489)scale(0.11 -0.11)">
       <use xlink:href="#ArialMT-53"/>
       <use x="55.615234" xlink:href="#ArialMT-48"/>
       <use x="111.230469" xlink:href="#ArialMT-48"/>
      </g>
     </g>
    </g>
    <g id="ytick_7">
     <g id="line2d_15">
      <path clip-path="url(#p5ea7faf9b2)" d="M 57.6 72.177231 
L 414.72 72.177231 
" style="fill:none;stroke:#cccccc;stroke-linecap:round;"/>
     </g>
     <g id="text_16">
      <!-- 600 -->
      <defs>
       <path d="M 49.75 54.046875 
L 41.015625 53.375 
Q 39.84375 58.546875 37.703125 60.890625 
Q 34.125 64.65625 28.90625 64.65625 
Q 24.703125 64.65625 21.53125 62.3125 
Q 17.390625 59.28125 14.984375 53.46875 
Q 12.59375 47.65625 12.5 36.921875 
Q 15.671875 41.75 20.265625 44.09375 
Q 24.859375 46.4375 29.890625 46.4375 
Q 38.671875 46.4375 44.84375 39.96875 
Q 51.03125 33.5 51.03125 23.25 
Q 51.03125 16.5 48.125 10.71875 
Q 45.21875 4.9375 40.140625 1.859375 
Q 35.0625 -1.21875 28.609375 -1.21875 
Q 17.625 -1.21875 10.6875 6.859375 
Q 3.765625 14.9375 3.765625 33.5 
Q 3.765625 54.25 11.421875 63.671875 
Q 18.109375 71.875 29.4375 71.875 
Q 37.890625 71.875 43.28125 67.140625 
Q 48.6875 62.40625 49.75 54.046875 
z
M 13.875 23.1875 
Q 13.875 18.65625 15.796875 14.5 
Q 17.71875 10.359375 21.1875 8.171875 
Q 24.65625 6 28.46875 6 
Q 34.03125 6 38.03125 10.484375 
Q 42.046875 14.984375 42.046875 22.703125 
Q 42.046875 30.125 38.078125 34.390625 
Q 34.125 38.671875 28.125 38.671875 
Q 22.171875 38.671875 18.015625 34.390625 
Q 13.875 30.125 13.875 23.1875 
z
" id="ArialMT-54"/>
      </defs>
      <g style="fill:#262626;" transform="translate(29.748906 76.114028)scale(0.11 -0.11)">
       <use xlink:href="#ArialMT-54"/>
       <use x="55.615234" xlink:href="#ArialMT-48"/>
       <use x="111.230469" xlink:href="#ArialMT-48"/>
      </g>
     </g>
    </g>
    <g id="text_17">
     <!-- Population Count -->
     <defs>
      <path d="M 7.71875 0 
L 7.71875 71.578125 
L 34.71875 71.578125 
Q 41.84375 71.578125 45.609375 70.90625 
Q 50.875 70.015625 54.4375 67.546875 
Q 58.015625 65.09375 60.1875 60.640625 
Q 62.359375 56.203125 62.359375 50.875 
Q 62.359375 41.75 56.546875 35.421875 
Q 50.734375 29.109375 35.546875 29.109375 
L 17.1875 29.109375 
L 17.1875 0 
z
M 17.1875 37.546875 
L 35.6875 37.546875 
Q 44.875 37.546875 48.734375 40.96875 
Q 52.59375 44.390625 52.59375 50.59375 
Q 52.59375 55.078125 50.3125 58.265625 
Q 48.046875 61.46875 44.34375 62.5 
Q 41.9375 63.140625 35.5 63.140625 
L 17.1875 63.140625 
z
" id="ArialMT-80"/>
      <path d="M 3.328125 25.921875 
Q 3.328125 40.328125 11.328125 47.265625 
Q 18.015625 53.03125 27.640625 53.03125 
Q 38.328125 53.03125 45.109375 46.015625 
Q 51.90625 39.015625 51.90625 26.65625 
Q 51.90625 16.65625 48.90625 10.90625 
Q 45.90625 5.171875 40.15625 2 
Q 34.421875 -1.171875 27.640625 -1.171875 
Q 16.75 -1.171875 10.03125 5.8125 
Q 3.328125 12.796875 3.328125 25.921875 
z
M 12.359375 25.921875 
Q 12.359375 15.96875 16.703125 11.015625 
Q 21.046875 6.0625 27.640625 6.0625 
Q 34.1875 6.0625 38.53125 11.03125 
Q 42.875 16.015625 42.875 26.21875 
Q 42.875 35.84375 38.5 40.796875 
Q 34.125 45.75 27.640625 45.75 
Q 21.046875 45.75 16.703125 40.8125 
Q 12.359375 35.890625 12.359375 25.921875 
z
" id="ArialMT-111"/>
      <path d="M 6.59375 -19.875 
L 6.59375 51.859375 
L 14.59375 51.859375 
L 14.59375 45.125 
Q 17.4375 49.078125 21 51.046875 
Q 24.5625 53.03125 29.640625 53.03125 
Q 36.28125 53.03125 41.359375 49.609375 
Q 46.4375 46.1875 49.015625 39.953125 
Q 51.609375 33.734375 51.609375 26.3125 
Q 51.609375 18.359375 48.75 11.984375 
Q 45.90625 5.609375 40.453125 2.21875 
Q 35.015625 -1.171875 29 -1.171875 
Q 24.609375 -1.171875 21.109375 0.6875 
Q 17.625 2.546875 15.375 5.375 
L 15.375 -19.875 
z
M 14.546875 25.640625 
Q 14.546875 15.625 18.59375 10.84375 
Q 22.65625 6.0625 28.421875 6.0625 
Q 34.28125 6.0625 38.453125 11.015625 
Q 42.625 15.96875 42.625 26.375 
Q 42.625 36.28125 38.546875 41.203125 
Q 34.46875 46.140625 28.8125 46.140625 
Q 23.1875 46.140625 18.859375 40.890625 
Q 14.546875 35.640625 14.546875 25.640625 
z
" id="ArialMT-112"/>
      <path d="M 40.578125 0 
L 40.578125 7.625 
Q 34.515625 -1.171875 24.125 -1.171875 
Q 19.53125 -1.171875 15.546875 0.578125 
Q 11.578125 2.34375 9.640625 5 
Q 7.71875 7.671875 6.9375 11.53125 
Q 6.390625 14.109375 6.390625 19.734375 
L 6.390625 51.859375 
L 15.1875 51.859375 
L 15.1875 23.09375 
Q 15.1875 16.21875 15.71875 13.8125 
Q 16.546875 10.359375 19.234375 8.375 
Q 21.921875 6.390625 25.875 6.390625 
Q 29.828125 6.390625 33.296875 8.421875 
Q 36.765625 10.453125 38.203125 13.9375 
Q 39.65625 17.4375 39.65625 24.078125 
L 39.65625 51.859375 
L 48.4375 51.859375 
L 48.4375 0 
z
" id="ArialMT-117"/>
      <path d="M 6.390625 0 
L 6.390625 71.578125 
L 15.1875 71.578125 
L 15.1875 0 
z
" id="ArialMT-108"/>
      <path d="M 40.4375 6.390625 
Q 35.546875 2.25 31.03125 0.53125 
Q 26.515625 -1.171875 21.34375 -1.171875 
Q 12.796875 -1.171875 8.203125 3 
Q 3.609375 7.171875 3.609375 13.671875 
Q 3.609375 17.484375 5.34375 20.625 
Q 7.078125 23.78125 9.890625 25.6875 
Q 12.703125 27.59375 16.21875 28.5625 
Q 18.796875 29.25 24.03125 29.890625 
Q 34.671875 31.15625 39.703125 32.90625 
Q 39.75 34.71875 39.75 35.203125 
Q 39.75 40.578125 37.25 42.78125 
Q 33.890625 45.75 27.25 45.75 
Q 21.046875 45.75 18.09375 43.578125 
Q 15.140625 41.40625 13.71875 35.890625 
L 5.125 37.0625 
Q 6.296875 42.578125 8.984375 45.96875 
Q 11.671875 49.359375 16.75 51.1875 
Q 21.828125 53.03125 28.515625 53.03125 
Q 35.15625 53.03125 39.296875 51.46875 
Q 43.453125 49.90625 45.40625 47.53125 
Q 47.359375 45.171875 48.140625 41.546875 
Q 48.578125 39.3125 48.578125 33.453125 
L 48.578125 21.734375 
Q 48.578125 9.46875 49.140625 6.21875 
Q 49.703125 2.984375 51.375 0 
L 42.1875 0 
Q 40.828125 2.734375 40.4375 6.390625 
z
M 39.703125 26.03125 
Q 34.90625 24.078125 25.34375 22.703125 
Q 19.921875 21.921875 17.671875 20.9375 
Q 15.4375 19.96875 14.203125 18.09375 
Q 12.984375 16.21875 12.984375 13.921875 
Q 12.984375 10.40625 15.640625 8.0625 
Q 18.3125 5.71875 23.4375 5.71875 
Q 28.515625 5.71875 32.46875 7.9375 
Q 36.421875 10.15625 38.28125 14.015625 
Q 39.703125 17 39.703125 22.796875 
z
" id="ArialMT-97"/>
      <path d="M 25.78125 7.859375 
L 27.046875 0.09375 
Q 23.34375 -0.6875 20.40625 -0.6875 
Q 15.625 -0.6875 12.984375 0.828125 
Q 10.359375 2.34375 9.28125 4.8125 
Q 8.203125 7.28125 8.203125 15.1875 
L 8.203125 45.015625 
L 1.765625 45.015625 
L 1.765625 51.859375 
L 8.203125 51.859375 
L 8.203125 64.703125 
L 16.9375 69.96875 
L 16.9375 51.859375 
L 25.78125 51.859375 
L 25.78125 45.015625 
L 16.9375 45.015625 
L 16.9375 14.703125 
Q 16.9375 10.9375 17.40625 9.859375 
Q 17.875 8.796875 18.921875 8.15625 
Q 19.96875 7.515625 21.921875 7.515625 
Q 23.390625 7.515625 25.78125 7.859375 
z
" id="ArialMT-116"/>
      <path d="M 6.59375 0 
L 6.59375 51.859375 
L 14.5 51.859375 
L 14.5 44.484375 
Q 20.21875 53.03125 31 53.03125 
Q 35.6875 53.03125 39.625 51.34375 
Q 43.5625 49.65625 45.515625 46.921875 
Q 47.46875 44.1875 48.25 40.4375 
Q 48.734375 37.984375 48.734375 31.890625 
L 48.734375 0 
L 39.9375 0 
L 39.9375 31.546875 
Q 39.9375 36.921875 38.90625 39.578125 
Q 37.890625 42.234375 35.28125 43.8125 
Q 32.671875 45.40625 29.15625 45.40625 
Q 23.53125 45.40625 19.453125 41.84375 
Q 15.375 38.28125 15.375 28.328125 
L 15.375 0 
z
" id="ArialMT-110"/>
      <path id="ArialMT-32"/>
      <path d="M 58.796875 25.09375 
L 68.265625 22.703125 
Q 65.28125 11.03125 57.546875 4.90625 
Q 49.8125 -1.21875 38.625 -1.21875 
Q 27.046875 -1.21875 19.796875 3.484375 
Q 12.546875 8.203125 8.765625 17.140625 
Q 4.984375 26.078125 4.984375 36.328125 
Q 4.984375 47.515625 9.25 55.828125 
Q 13.53125 64.15625 21.40625 68.46875 
Q 29.296875 72.796875 38.765625 72.796875 
Q 49.515625 72.796875 56.828125 67.328125 
Q 64.15625 61.859375 67.046875 51.953125 
L 57.71875 49.75 
Q 55.21875 57.5625 50.484375 61.125 
Q 45.75 64.703125 38.578125 64.703125 
Q 30.328125 64.703125 24.78125 60.734375 
Q 19.234375 56.78125 16.984375 50.109375 
Q 14.75 43.453125 14.75 36.375 
Q 14.75 27.25 17.40625 20.4375 
Q 20.0625 13.625 25.671875 10.25 
Q 31.296875 6.890625 37.84375 6.890625 
Q 45.796875 6.890625 51.3125 11.46875 
Q 56.84375 16.0625 58.796875 25.09375 
z
" id="ArialMT-67"/>
     </defs>
     <g style="fill:#262626;" transform="translate(23.363906 220.55925)rotate(-90)scale(0.12 -0.12)">
      <use xlink:href="#ArialMT-80"/>
      <use x="66.699219" xlink:href="#ArialMT-111"/>
      <use x="122.314453" xlink:href="#ArialMT-112"/>
      <use x="177.929688" xlink:href="#ArialMT-117"/>
      <use x="233.544922" xlink:href="#ArialMT-108"/>
      <use x="255.761719" xlink:href="#ArialMT-97"/>
      <use x="311.376953" xlink:href="#ArialMT-116"/>
      <use x="339.160156" xlink:href="#ArialMT-105"/>
      <use x="361.376953" xlink:href="#ArialMT-111"/>
      <use x="416.992188" xlink:href="#ArialMT-110"/>
      <use x="472.607422" xlink:href="#ArialMT-32"/>
      <use x="500.390625" xlink:href="#ArialMT-67"/>
      <use x="572.607422" xlink:href="#ArialMT-111"/>
      <use x="628.222656" xlink:href="#ArialMT-117"/>
      <use x="683.837891" xlink:href="#ArialMT-110"/>
      <use x="739.453125" xlink:href="#ArialMT-116"/>
     </g>
    </g>
   </g>
   <g id="line2d_16">
    <path clip-path="url(#p5ea7faf9b2)" d="M 73.832727 295.488 
L 115.548116 295.488 
L 117.361828 295.115815 
L 135.498954 295.115815 
L 137.312666 294.743631 
L 159.077217 294.743631 
L 160.890929 294.371446 
L 168.14578 294.371446 
L 171.773205 293.627077 
L 175.40063 293.627077 
L 177.214342 293.254892 
L 179.028055 292.138338 
L 193.537755 292.138338 
L 195.351468 291.766154 
L 204.42003 291.766154 
L 206.233743 291.393969 
L 227.998294 291.393969 
L 229.812006 291.021785 
L 233.439431 291.021785 
L 235.253144 290.6496 
L 255.203982 290.6496 
L 257.017694 290.277415 
L 260.645119 290.277415 
L 262.458832 289.905231 
L 264.272544 289.905231 
L 266.086257 289.533046 
L 275.15482 289.533046 
L 276.968532 289.160862 
L 287.850808 289.160862 
L 289.66452 288.416492 
L 298.733083 288.416492 
L 300.546795 288.044308 
L 304.17422 288.044308 
L 305.987933 287.672123 
L 311.429071 287.672123 
L 313.242783 287.299938 
L 315.056496 287.299938 
L 316.870208 286.927754 
L 322.311346 286.927754 
L 324.125058 286.555569 
L 327.752483 286.555569 
L 329.566196 286.183385 
L 331.379909 286.183385 
L 335.007334 285.439015 
L 344.075896 285.439015 
L 345.889609 285.066831 
L 398.487273 285.066831 
L 398.487273 285.066831 
" style="fill:none;stroke:#4c72b0;stroke-linecap:round;stroke-width:1.5;"/>
   </g>
   <g id="line2d_17">
    <path clip-path="url(#p5ea7faf9b2)" d="M 73.832727 295.488 
L 110.106978 295.488 
L 111.920691 295.115815 
L 120.989253 295.115815 
L 122.802966 294.743631 
L 126.430391 294.743631 
L 130.057816 293.999262 
L 131.871529 293.254892 
L 133.685241 293.254892 
L 135.498954 292.882708 
L 137.312666 291.766154 
L 139.126379 290.277415 
L 142.753804 288.788677 
L 144.567517 288.416492 
L 146.381229 287.299938 
L 150.008654 287.299938 
L 151.822367 286.927754 
L 153.636079 285.439015 
L 155.449792 285.066831 
L 157.263504 285.066831 
L 159.077217 283.950277 
L 160.890929 282.089354 
L 166.332067 279.856246 
L 168.14578 277.623138 
L 169.959492 277.623138 
L 171.773205 276.1344 
L 173.586917 274.273477 
L 175.40063 272.784738 
L 177.214342 271.668185 
L 179.028055 269.807262 
L 180.841767 269.062892 
L 182.65548 269.062892 
L 184.469192 267.946338 
L 186.282905 267.201969 
L 188.096618 265.713231 
L 189.91033 264.596677 
L 191.724043 263.852308 
L 193.537755 262.363569 
L 195.351468 261.247015 
L 197.16518 260.502646 
L 198.978893 260.502646 
L 200.792605 259.013908 
L 204.42003 256.7808 
L 206.233743 254.919877 
L 208.047456 254.547692 
L 209.861168 252.686769 
L 211.674881 251.198031 
L 213.488593 248.964923 
L 215.302306 247.848369 
L 218.929731 244.126523 
L 220.743443 240.776862 
L 222.557156 239.288123 
L 224.370868 235.566277 
L 226.184581 234.449723 
L 227.998294 232.216615 
L 229.812006 229.239138 
L 231.625719 227.006031 
L 233.439431 225.145108 
L 235.253144 224.028554 
L 237.066856 223.284185 
L 238.880569 222.167631 
L 240.694281 219.190154 
L 242.507994 217.701415 
L 244.321706 216.584862 
L 246.135419 213.607385 
L 247.949132 211.746462 
L 249.762844 211.374277 
L 251.576557 207.652431 
L 253.390269 206.163692 
L 255.203982 204.302769 
L 258.831407 199.836554 
L 260.645119 196.859077 
L 264.272544 193.8816 
L 266.086257 192.765046 
L 267.89997 190.904123 
L 269.713682 189.415385 
L 271.527395 187.182277 
L 273.341107 186.437908 
L 275.15482 183.088246 
L 276.968532 181.971692 
L 278.782245 179.738585 
L 280.595957 177.877662 
L 282.40967 176.761108 
L 284.223382 175.272369 
L 286.037095 173.411446 
L 289.66452 170.433969 
L 291.478233 168.573046 
L 293.291945 167.084308 
L 295.105658 164.106831 
L 296.91937 161.501538 
L 298.733083 160.757169 
L 300.546795 158.896246 
L 302.360508 155.546585 
L 305.987933 153.313477 
L 307.801646 149.219446 
L 309.615358 147.358523 
L 311.429071 145.125415 
L 313.242783 142.147938 
L 315.056496 136.565169 
L 316.870208 133.215508 
L 318.683921 129.121477 
L 320.497633 125.399631 
L 322.311346 123.538708 
L 324.125058 119.444677 
L 325.938771 116.095015 
L 327.752483 113.489723 
L 329.566196 112.373169 
L 331.379909 108.279138 
L 333.193621 103.440738 
L 335.007334 101.207631 
L 340.448471 90.042092 
L 342.262184 87.808985 
L 344.075896 84.459323 
L 345.889609 82.5984 
L 349.517034 80.365292 
L 356.771884 78.876554 
L 358.585597 78.876554 
L 367.654159 77.015631 
L 373.095297 77.015631 
L 374.90901 76.643446 
L 387.604997 76.643446 
L 389.41871 76.271262 
L 396.67356 76.271262 
L 398.487273 75.899077 
L 398.487273 75.899077 
" style="fill:none;stroke:#dd8452;stroke-linecap:round;stroke-width:1.5;"/>
   </g>
   <g id="line2d_18">
    <path clip-path="url(#p5ea7faf9b2)" d="M 73.832727 295.115815 
L 79.273865 295.115815 
L 81.087577 294.743631 
L 84.715003 294.743631 
L 86.528715 294.371446 
L 90.15614 294.371446 
L 93.783565 293.627077 
L 95.597278 292.882708 
L 97.41099 292.882708 
L 99.224703 292.510523 
L 102.852128 289.533046 
L 106.479553 288.044308 
L 108.293266 287.672123 
L 110.106978 286.555569 
L 111.920691 286.927754 
L 113.734403 286.927754 
L 115.548116 286.555569 
L 117.361828 285.439015 
L 119.175541 285.066831 
L 120.989253 285.066831 
L 122.802966 284.322462 
L 124.616679 282.089354 
L 126.430391 281.344985 
L 130.057816 280.600615 
L 131.871529 279.111877 
L 133.685241 278.739692 
L 135.498954 277.250954 
L 137.312666 276.878769 
L 139.126379 276.878769 
L 140.940091 276.1344 
L 142.753804 273.901292 
L 144.567517 273.529108 
L 146.381229 274.645662 
L 148.194942 273.529108 
L 150.008654 272.784738 
L 151.822367 271.668185 
L 153.636079 272.040369 
L 155.449792 271.668185 
L 157.263504 270.179446 
L 159.077217 269.807262 
L 160.890929 271.296 
L 162.704642 272.040369 
L 164.518354 271.296 
L 166.332067 270.923815 
L 168.14578 272.040369 
L 169.959492 270.179446 
L 171.773205 271.668185 
L 175.40063 271.668185 
L 177.214342 270.923815 
L 179.028055 272.784738 
L 180.841767 271.668185 
L 182.65548 269.807262 
L 184.469192 267.574154 
L 186.282905 266.829785 
L 188.096618 264.596677 
L 189.91033 264.596677 
L 191.724043 263.107938 
L 193.537755 261.247015 
L 195.351468 260.502646 
L 197.16518 259.386092 
L 198.978893 257.897354 
L 200.792605 258.641723 
L 202.606318 258.641723 
L 204.42003 256.7808 
L 206.233743 257.525169 
L 208.047456 256.7808 
L 209.861168 255.664246 
L 211.674881 255.292062 
L 213.488593 257.152985 
L 215.302306 254.547692 
L 217.116018 254.919877 
L 218.929731 254.919877 
L 220.743443 255.664246 
L 222.557156 254.919877 
L 224.370868 255.664246 
L 226.184581 254.919877 
L 227.998294 255.664246 
L 229.812006 257.525169 
L 233.439431 258.269538 
L 235.253144 257.525169 
L 237.066856 257.525169 
L 238.880569 255.292062 
L 240.694281 256.7808 
L 244.321706 255.292062 
L 246.135419 257.152985 
L 247.949132 257.525169 
L 249.762844 256.036431 
L 251.576557 258.269538 
L 253.390269 257.525169 
L 255.203982 257.525169 
L 257.017694 258.641723 
L 258.831407 257.897354 
L 260.645119 258.269538 
L 262.458832 259.386092 
L 264.272544 258.641723 
L 266.086257 256.7808 
L 267.89997 257.525169 
L 269.713682 257.525169 
L 271.527395 255.664246 
L 273.341107 254.547692 
L 275.15482 255.664246 
L 276.968532 253.803323 
L 278.782245 250.453662 
L 280.595957 248.592738 
L 282.40967 245.615262 
L 284.223382 243.382154 
L 286.037095 243.382154 
L 287.850808 240.404677 
L 289.66452 239.288123 
L 291.478233 238.543754 
L 293.291945 238.543754 
L 295.105658 237.4272 
L 296.91937 234.821908 
L 298.733083 232.960985 
L 300.546795 231.472246 
L 302.360508 231.100062 
L 304.17422 228.494769 
L 305.987933 227.7504 
L 307.801646 228.494769 
L 309.615358 228.122585 
L 311.429071 229.239138 
L 313.242783 231.472246 
L 315.056496 236.682831 
L 316.870208 240.032492 
L 318.683921 243.754338 
L 320.497633 247.104 
L 322.311346 248.964923 
L 324.125058 253.058954 
L 325.938771 256.036431 
L 327.752483 258.269538 
L 329.566196 259.386092 
L 331.379909 263.107938 
L 333.193621 268.318523 
L 335.007334 270.923815 
L 336.821046 274.645662 
L 338.634759 277.995323 
L 340.448471 281.717169 
L 342.262184 283.950277 
L 344.075896 287.299938 
L 345.889609 289.533046 
L 349.517034 291.766154 
L 351.330747 292.138338 
L 353.144459 292.138338 
L 356.771884 292.882708 
L 358.585597 292.882708 
L 360.399309 293.254892 
L 362.213022 293.254892 
L 367.654159 294.371446 
L 373.095297 294.371446 
L 374.90901 294.743631 
L 387.604997 294.743631 
L 389.41871 295.115815 
L 396.67356 295.115815 
L 398.487273 295.488 
L 398.487273 295.488 
" style="fill:none;stroke:#55a868;stroke-linecap:round;stroke-width:1.5;"/>
   </g>
   <g id="line2d_19">
    <path clip-path="url(#p5ea7faf9b2)" d="M 73.832727 295.115815 
L 79.273865 295.115815 
L 81.087577 294.743631 
L 84.715003 294.743631 
L 86.528715 294.371446 
L 90.15614 294.371446 
L 93.783565 293.627077 
L 95.597278 292.882708 
L 97.41099 292.882708 
L 99.224703 292.510523 
L 102.852128 289.533046 
L 106.479553 288.044308 
L 108.293266 287.672123 
L 110.106978 286.555569 
L 113.734403 286.555569 
L 115.548116 286.183385 
L 117.361828 284.694646 
L 119.175541 284.322462 
L 120.989253 284.322462 
L 122.802966 283.205908 
L 124.616679 280.9728 
L 130.057816 278.739692 
L 131.871529 276.506585 
L 133.685241 276.1344 
L 137.312666 272.412554 
L 140.940091 269.435077 
L 142.753804 266.4576 
L 144.567517 265.713231 
L 146.381229 265.713231 
L 148.194942 264.596677 
L 150.008654 263.852308 
L 151.822367 262.363569 
L 153.636079 261.247015 
L 155.449792 260.502646 
L 159.077217 257.525169 
L 160.890929 256.7808 
L 162.704642 256.7808 
L 164.518354 255.292062 
L 168.14578 253.058954 
L 169.959492 250.825846 
L 171.773205 250.453662 
L 173.586917 248.592738 
L 175.40063 247.104 
L 177.214342 244.870892 
L 179.028055 243.754338 
L 182.65548 240.032492 
L 184.469192 236.682831 
L 186.282905 235.194092 
L 188.096618 231.472246 
L 189.91033 230.355692 
L 191.724043 228.122585 
L 193.537755 224.772923 
L 195.351468 222.539815 
L 197.16518 220.678892 
L 198.978893 219.190154 
L 200.792605 218.445785 
L 202.606318 217.329231 
L 204.42003 214.351754 
L 206.233743 212.863015 
L 208.047456 211.746462 
L 209.861168 208.768985 
L 211.674881 206.908062 
L 213.488593 206.535877 
L 215.302306 202.814031 
L 217.116018 201.325292 
L 218.929731 199.464369 
L 220.743443 196.859077 
L 222.557156 194.625969 
L 224.370868 191.648492 
L 226.184581 189.787569 
L 229.812006 186.810092 
L 231.625719 184.949169 
L 233.439431 183.460431 
L 235.253144 181.227323 
L 237.066856 180.482954 
L 238.880569 177.133292 
L 240.694281 175.644554 
L 242.507994 173.411446 
L 244.321706 171.550523 
L 246.135419 170.433969 
L 247.949132 168.945231 
L 249.762844 167.084308 
L 251.576557 165.595569 
L 253.390269 163.362462 
L 255.203982 161.501538 
L 257.017694 160.0128 
L 258.831407 157.035323 
L 260.645119 154.430031 
L 262.458832 153.685662 
L 264.272544 151.452554 
L 266.086257 148.102892 
L 267.89997 146.986338 
L 269.713682 145.4976 
L 271.527395 141.403569 
L 273.341107 139.542646 
L 275.15482 137.309538 
L 276.968532 133.959877 
L 278.782245 128.377108 
L 280.595957 124.655262 
L 282.40967 120.561231 
L 284.223382 116.839385 
L 286.037095 114.978462 
L 287.850808 110.512246 
L 289.66452 107.162585 
L 291.478233 104.557292 
L 293.291945 103.068554 
L 295.105658 98.974523 
L 296.91937 93.763938 
L 298.733083 91.158646 
L 304.17422 79.993108 
L 305.987933 77.76 
L 307.801646 74.410338 
L 309.615358 72.177231 
L 313.242783 69.944123 
L 320.497633 68.455385 
L 322.311346 68.455385 
L 331.379909 66.594462 
L 336.821046 66.594462 
L 338.634759 66.222277 
L 351.330747 66.222277 
L 353.144459 65.850092 
L 360.399309 65.850092 
L 362.213022 65.477908 
L 398.487273 65.477908 
L 398.487273 65.477908 
" style="fill:none;stroke:#c44e52;stroke-linecap:round;stroke-width:1.5;"/>
   </g>
   <g id="line2d_20">
    <path clip-path="url(#p5ea7faf9b2)" d="M 73.832727 53.568 
L 115.548116 53.568 
L 117.361828 53.940185 
L 135.498954 53.940185 
L 137.312666 54.312369 
L 159.077217 54.312369 
L 160.890929 54.684554 
L 168.14578 54.684554 
L 171.773205 55.428923 
L 175.40063 55.428923 
L 177.214342 55.801108 
L 179.028055 56.917662 
L 193.537755 56.917662 
L 195.351468 57.289846 
L 204.42003 57.289846 
L 206.233743 57.662031 
L 227.998294 57.662031 
L 229.812006 58.034215 
L 233.439431 58.034215 
L 235.253144 58.4064 
L 255.203982 58.4064 
L 257.017694 58.778585 
L 260.645119 58.778585 
L 262.458832 59.150769 
L 264.272544 59.150769 
L 266.086257 59.522954 
L 275.15482 59.522954 
L 276.968532 59.895138 
L 287.850808 59.895138 
L 289.66452 60.639508 
L 298.733083 60.639508 
L 300.546795 61.011692 
L 304.17422 61.011692 
L 305.987933 61.383877 
L 311.429071 61.383877 
L 313.242783 61.756062 
L 315.056496 61.756062 
L 316.870208 62.128246 
L 322.311346 62.128246 
L 324.125058 62.500431 
L 327.752483 62.500431 
L 329.566196 62.872615 
L 331.379909 62.872615 
L 335.007334 63.616985 
L 344.075896 63.616985 
L 345.889609 63.989169 
L 398.487273 63.989169 
L 398.487273 63.989169 
" style="fill:none;stroke:#8172b3;stroke-linecap:round;stroke-width:1.5;"/>
   </g>
   <g id="patch_3">
    <path d="M 57.6 307.584 
L 57.6 41.472 
" style="fill:none;stroke:#cccccc;stroke-linecap:square;stroke-linejoin:miter;stroke-width:1.25;"/>
   </g>
   <g id="patch_4">
    <path d="M 414.72 307.584 
L 414.72 41.472 
" style="fill:none;stroke:#cccccc;stroke-linecap:square;stroke-linejoin:miter;stroke-width:1.25;"/>
   </g>
   <g id="patch_5">
    <path d="M 57.6 307.584 
L 414.72 307.584 
" style="fill:none;stroke:#cccccc;stroke-linecap:square;stroke-linejoin:miter;stroke-width:1.25;"/>
   </g>
   <g id="patch_6">
    <path d="M 57.6 41.472 
L 414.72 41.472 
" style="fill:none;stroke:#cccccc;stroke-linecap:square;stroke-linejoin:miter;stroke-width:1.25;"/>
   </g>
   <g id="text_18">
    <!-- Infection Simulation -->
    <defs>
     <path d="M 9.328125 0 
L 9.328125 71.578125 
L 18.796875 71.578125 
L 18.796875 0 
z
" id="ArialMT-73"/>
     <path d="M 8.6875 0 
L 8.6875 45.015625 
L 0.921875 45.015625 
L 0.921875 51.859375 
L 8.6875 51.859375 
L 8.6875 57.375 
Q 8.6875 62.59375 9.625 65.140625 
Q 10.890625 68.5625 14.078125 70.671875 
Q 17.28125 72.796875 23.046875 72.796875 
Q 26.765625 72.796875 31.25 71.921875 
L 29.9375 64.265625 
Q 27.203125 64.75 24.75 64.75 
Q 20.75 64.75 19.09375 63.03125 
Q 17.4375 61.328125 17.4375 56.640625 
L 17.4375 51.859375 
L 27.546875 51.859375 
L 27.546875 45.015625 
L 17.4375 45.015625 
L 17.4375 0 
z
" id="ArialMT-102"/>
     <path d="M 40.4375 19 
L 49.078125 17.875 
Q 47.65625 8.9375 41.8125 3.875 
Q 35.984375 -1.171875 27.484375 -1.171875 
Q 16.84375 -1.171875 10.375 5.78125 
Q 3.90625 12.75 3.90625 25.734375 
Q 3.90625 34.125 6.6875 40.421875 
Q 9.46875 46.734375 15.15625 49.875 
Q 20.84375 53.03125 27.546875 53.03125 
Q 35.984375 53.03125 41.359375 48.75 
Q 46.734375 44.484375 48.25 36.625 
L 39.703125 35.296875 
Q 38.484375 40.53125 35.375 43.15625 
Q 32.28125 45.796875 27.875 45.796875 
Q 21.234375 45.796875 17.078125 41.03125 
Q 12.9375 36.28125 12.9375 25.984375 
Q 12.9375 15.53125 16.9375 10.796875 
Q 20.953125 6.0625 27.390625 6.0625 
Q 32.5625 6.0625 36.03125 9.234375 
Q 39.5 12.40625 40.4375 19 
z
" id="ArialMT-99"/>
     <path d="M 4.5 23 
L 13.421875 23.78125 
Q 14.0625 18.40625 16.375 14.96875 
Q 18.703125 11.53125 23.578125 9.40625 
Q 28.46875 7.28125 34.578125 7.28125 
Q 39.984375 7.28125 44.140625 8.890625 
Q 48.296875 10.5 50.3125 13.296875 
Q 52.34375 16.109375 52.34375 19.4375 
Q 52.34375 22.796875 50.390625 25.3125 
Q 48.4375 27.828125 43.953125 29.546875 
Q 41.0625 30.671875 31.203125 33.03125 
Q 21.34375 35.40625 17.390625 37.5 
Q 12.25 40.1875 9.734375 44.15625 
Q 7.234375 48.140625 7.234375 53.078125 
Q 7.234375 58.5 10.296875 63.203125 
Q 13.375 67.921875 19.28125 70.359375 
Q 25.203125 72.796875 32.421875 72.796875 
Q 40.375 72.796875 46.453125 70.234375 
Q 52.546875 67.671875 55.8125 62.6875 
Q 59.078125 57.71875 59.328125 51.421875 
L 50.25 50.734375 
Q 49.515625 57.515625 45.28125 60.984375 
Q 41.0625 64.453125 32.8125 64.453125 
Q 24.21875 64.453125 20.28125 61.296875 
Q 16.359375 58.15625 16.359375 53.71875 
Q 16.359375 49.859375 19.140625 47.359375 
Q 21.875 44.875 33.421875 42.265625 
Q 44.96875 39.65625 49.265625 37.703125 
Q 55.515625 34.8125 58.484375 30.390625 
Q 61.46875 25.984375 61.46875 20.21875 
Q 61.46875 14.5 58.203125 9.4375 
Q 54.9375 4.390625 48.796875 1.578125 
Q 42.671875 -1.21875 35.015625 -1.21875 
Q 25.296875 -1.21875 18.71875 1.609375 
Q 12.15625 4.4375 8.421875 10.125 
Q 4.6875 15.828125 4.5 23 
z
" id="ArialMT-83"/>
    </defs>
    <g style="fill:#262626;" transform="translate(183.800625 35.472)scale(0.12 -0.12)">
     <use xlink:href="#ArialMT-73"/>
     <use x="27.783203" xlink:href="#ArialMT-110"/>
     <use x="83.398438" xlink:href="#ArialMT-102"/>
     <use x="111.181641" xlink:href="#ArialMT-101"/>
     <use x="166.796875" xlink:href="#ArialMT-99"/>
     <use x="216.796875" xlink:href="#ArialMT-116"/>
     <use x="244.580078" xlink:href="#ArialMT-105"/>
     <use x="266.796875" xlink:href="#ArialMT-111"/>
     <use x="322.412109" xlink:href="#ArialMT-110"/>
     <use x="378.027344" xlink:href="#ArialMT-32"/>
     <use x="405.810547" xlink:href="#ArialMT-83"/>
     <use x="472.509766" xlink:href="#ArialMT-105"/>
     <use x="494.726562" xlink:href="#ArialMT-109"/>
     <use x="578.027344" xlink:href="#ArialMT-117"/>
     <use x="633.642578" xlink:href="#ArialMT-108"/>
     <use x="655.859375" xlink:href="#ArialMT-97"/>
     <use x="711.474609" xlink:href="#ArialMT-116"/>
     <use x="739.257812" xlink:href="#ArialMT-105"/>
     <use x="761.474609" xlink:href="#ArialMT-111"/>
     <use x="817.089844" xlink:href="#ArialMT-110"/>
    </g>
   </g>
   <g id="legend_1">
    <g id="patch_7">
     <path d="M 65.3 215.209094 
L 187.312344 215.209094 
Q 189.512344 215.209094 189.512344 213.009094 
L 189.512344 136.046906 
Q 189.512344 133.846906 187.312344 133.846906 
L 65.3 133.846906 
Q 63.1 133.846906 63.1 136.046906 
L 63.1 213.009094 
Q 63.1 215.209094 65.3 215.209094 
z
" style="fill:#ffffff;opacity:0.8;stroke:#cccccc;stroke-linejoin:miter;"/>
    </g>
    <g id="line2d_21">
     <path d="M 67.5 142.2705 
L 89.5 142.2705 
" style="fill:none;stroke:#4c72b0;stroke-linecap:round;stroke-width:1.5;"/>
    </g>
    <g id="line2d_22"/>
    <g id="text_19">
     <!-- Dead -->
     <defs>
      <path d="M 7.71875 0 
L 7.71875 71.578125 
L 32.375 71.578125 
Q 40.71875 71.578125 45.125 70.5625 
Q 51.265625 69.140625 55.609375 65.4375 
Q 61.28125 60.640625 64.078125 53.1875 
Q 66.890625 45.75 66.890625 36.1875 
Q 66.890625 28.03125 64.984375 21.734375 
Q 63.09375 15.4375 60.109375 11.296875 
Q 57.125 7.171875 53.578125 4.796875 
Q 50.046875 2.4375 45.046875 1.21875 
Q 40.046875 0 33.546875 0 
z
M 17.1875 8.453125 
L 32.46875 8.453125 
Q 39.546875 8.453125 43.578125 9.765625 
Q 47.609375 11.078125 50 13.484375 
Q 53.375 16.84375 55.25 22.53125 
Q 57.125 28.21875 57.125 36.328125 
Q 57.125 47.5625 53.4375 53.59375 
Q 49.75 59.625 44.484375 61.671875 
Q 40.671875 63.140625 32.234375 63.140625 
L 17.1875 63.140625 
z
" id="ArialMT-68"/>
      <path d="M 40.234375 0 
L 40.234375 6.546875 
Q 35.296875 -1.171875 25.734375 -1.171875 
Q 19.53125 -1.171875 14.328125 2.25 
Q 9.125 5.671875 6.265625 11.796875 
Q 3.421875 17.921875 3.421875 25.875 
Q 3.421875 33.640625 6 39.96875 
Q 8.59375 46.296875 13.765625 49.65625 
Q 18.953125 53.03125 25.34375 53.03125 
Q 30.03125 53.03125 33.6875 51.046875 
Q 37.359375 49.078125 39.65625 45.90625 
L 39.65625 71.578125 
L 48.390625 71.578125 
L 48.390625 0 
z
M 12.453125 25.875 
Q 12.453125 15.921875 16.640625 10.984375 
Q 20.84375 6.0625 26.5625 6.0625 
Q 32.328125 6.0625 36.34375 10.765625 
Q 40.375 15.484375 40.375 25.140625 
Q 40.375 35.796875 36.265625 40.765625 
Q 32.171875 45.75 26.171875 45.75 
Q 20.3125 45.75 16.375 40.96875 
Q 12.453125 36.1875 12.453125 25.875 
z
" id="ArialMT-100"/>
     </defs>
     <g style="fill:#262626;" transform="translate(98.3 146.1205)scale(0.11 -0.11)">
      <use xlink:href="#ArialMT-68"/>
      <use x="72.216797" xlink:href="#ArialMT-101"/>
      <use x="127.832031" xlink:href="#ArialMT-97"/>
      <use x="183.447266" xlink:href="#ArialMT-100"/>
     </g>
    </g>
    <g id="line2d_23">
     <path d="M 67.5 157.830344 
L 89.5 157.830344 
" style="fill:none;stroke:#dd8452;stroke-linecap:round;stroke-width:1.5;"/>
    </g>
    <g id="line2d_24"/>
    <g id="text_20">
     <!-- Immune -->
     <g style="fill:#262626;" transform="translate(98.3 161.680344)scale(0.11 -0.11)">
      <use xlink:href="#ArialMT-73"/>
      <use x="27.783203" xlink:href="#ArialMT-109"/>
      <use x="111.083984" xlink:href="#ArialMT-109"/>
      <use x="194.384766" xlink:href="#ArialMT-117"/>
      <use x="250" xlink:href="#ArialMT-110"/>
      <use x="305.615234" xlink:href="#ArialMT-101"/>
     </g>
    </g>
    <g id="line2d_25">
     <path d="M 67.5 173.52425 
L 89.5 173.52425 
" style="fill:none;stroke:#55a868;stroke-linecap:round;stroke-width:1.5;"/>
    </g>
    <g id="line2d_26"/>
    <g id="text_21">
     <!-- Currently Infected -->
     <defs>
      <path d="M 6.5 0 
L 6.5 51.859375 
L 14.40625 51.859375 
L 14.40625 44 
Q 17.4375 49.515625 20 51.265625 
Q 22.5625 53.03125 25.640625 53.03125 
Q 30.078125 53.03125 34.671875 50.203125 
L 31.640625 42.046875 
Q 28.421875 43.953125 25.203125 43.953125 
Q 22.3125 43.953125 20.015625 42.21875 
Q 17.71875 40.484375 16.75 37.40625 
Q 15.28125 32.71875 15.28125 27.15625 
L 15.28125 0 
z
" id="ArialMT-114"/>
      <path d="M 6.203125 -19.96875 
L 5.21875 -11.71875 
Q 8.109375 -12.5 10.25 -12.5 
Q 13.1875 -12.5 14.9375 -11.515625 
Q 16.703125 -10.546875 17.828125 -8.796875 
Q 18.65625 -7.46875 20.515625 -2.25 
Q 20.75 -1.515625 21.296875 -0.09375 
L 1.609375 51.859375 
L 11.078125 51.859375 
L 21.875 21.828125 
Q 23.96875 16.109375 25.640625 9.8125 
Q 27.15625 15.875 29.25 21.625 
L 40.328125 51.859375 
L 49.125 51.859375 
L 29.390625 -0.875 
Q 26.21875 -9.421875 24.46875 -12.640625 
Q 22.125 -17 19.09375 -19.015625 
Q 16.0625 -21.046875 11.859375 -21.046875 
Q 9.328125 -21.046875 6.203125 -19.96875 
z
" id="ArialMT-121"/>
     </defs>
     <g style="fill:#262626;" transform="translate(98.3 177.37425)scale(0.11 -0.11)">
      <use xlink:href="#ArialMT-67"/>
      <use x="72.216797" xlink:href="#ArialMT-117"/>
      <use x="127.832031" xlink:href="#ArialMT-114"/>
      <use x="161.132812" xlink:href="#ArialMT-114"/>
      <use x="194.433594" xlink:href="#ArialMT-101"/>
      <use x="250.048828" xlink:href="#ArialMT-110"/>
      <use x="305.664062" xlink:href="#ArialMT-116"/>
      <use x="333.447266" xlink:href="#ArialMT-108"/>
      <use x="355.664062" xlink:href="#ArialMT-121"/>
      <use x="405.664062" xlink:href="#ArialMT-32"/>
      <use x="433.447266" xlink:href="#ArialMT-73"/>
      <use x="461.230469" xlink:href="#ArialMT-110"/>
      <use x="516.845703" xlink:href="#ArialMT-102"/>
      <use x="544.628906" xlink:href="#ArialMT-101"/>
      <use x="600.244141" xlink:href="#ArialMT-99"/>
      <use x="650.244141" xlink:href="#ArialMT-116"/>
      <use x="678.027344" xlink:href="#ArialMT-101"/>
      <use x="733.642578" xlink:href="#ArialMT-100"/>
     </g>
    </g>
    <g id="line2d_27">
     <path d="M 67.5 189.213 
L 89.5 189.213 
" style="fill:none;stroke:#c44e52;stroke-linecap:round;stroke-width:1.5;"/>
    </g>
    <g id="line2d_28"/>
    <g id="text_22">
     <!-- Ever Infected -->
     <defs>
      <path d="M 7.90625 0 
L 7.90625 71.578125 
L 59.671875 71.578125 
L 59.671875 63.140625 
L 17.390625 63.140625 
L 17.390625 41.21875 
L 56.984375 41.21875 
L 56.984375 32.8125 
L 17.390625 32.8125 
L 17.390625 8.453125 
L 61.328125 8.453125 
L 61.328125 0 
z
" id="ArialMT-69"/>
      <path d="M 21 0 
L 1.265625 51.859375 
L 10.546875 51.859375 
L 21.6875 20.796875 
Q 23.484375 15.765625 25 10.359375 
Q 26.171875 14.453125 28.265625 20.21875 
L 39.796875 51.859375 
L 48.828125 51.859375 
L 29.203125 0 
z
" id="ArialMT-118"/>
     </defs>
     <g style="fill:#262626;" transform="translate(98.3 193.063)scale(0.11 -0.11)">
      <use xlink:href="#ArialMT-69"/>
      <use x="66.699219" xlink:href="#ArialMT-118"/>
      <use x="116.699219" xlink:href="#ArialMT-101"/>
      <use x="172.314453" xlink:href="#ArialMT-114"/>
      <use x="205.615234" xlink:href="#ArialMT-32"/>
      <use x="233.398438" xlink:href="#ArialMT-73"/>
      <use x="261.181641" xlink:href="#ArialMT-110"/>
      <use x="316.796875" xlink:href="#ArialMT-102"/>
      <use x="344.580078" xlink:href="#ArialMT-101"/>
      <use x="400.195312" xlink:href="#ArialMT-99"/>
      <use x="450.195312" xlink:href="#ArialMT-116"/>
      <use x="477.978516" xlink:href="#ArialMT-101"/>
      <use x="533.59375" xlink:href="#ArialMT-100"/>
     </g>
    </g>
    <g id="line2d_29">
     <path d="M 67.5 204.772844 
L 89.5 204.772844 
" style="fill:none;stroke:#8172b3;stroke-linecap:round;stroke-width:1.5;"/>
    </g>
    <g id="line2d_30"/>
    <g id="text_23">
     <!-- Total Population -->
     <g style="fill:#262626;" transform="translate(98.3 208.622844)scale(0.11 -0.11)">
      <use xlink:href="#ArialMT-84"/>
      <use x="49.958984" xlink:href="#ArialMT-111"/>
      <use x="105.574219" xlink:href="#ArialMT-116"/>
      <use x="133.357422" xlink:href="#ArialMT-97"/>
      <use x="188.972656" xlink:href="#ArialMT-108"/>
      <use x="211.189453" xlink:href="#ArialMT-32"/>
      <use x="238.972656" xlink:href="#ArialMT-80"/>
      <use x="305.671875" xlink:href="#ArialMT-111"/>
      <use x="361.287109" xlink:href="#ArialMT-112"/>
      <use x="416.902344" xlink:href="#ArialMT-117"/>
      <use x="472.517578" xlink:href="#ArialMT-108"/>
      <use x="494.734375" xlink:href="#ArialMT-97"/>
      <use x="550.349609" xlink:href="#ArialMT-116"/>
      <use x="578.132812" xlink:href="#ArialMT-105"/>
      <use x="600.349609" xlink:href="#ArialMT-111"/>
      <use x="655.964844" xlink:href="#ArialMT-110"/>
     </g>
    </g>
   </g>
  </g>
 </g>
 <defs>
  <clipPath id="p5ea7faf9b2">
   <rect height="266.112" width="357.12" x="57.6" y="41.472"/>
  </clipPath>
 </defs>
</svg>
